<svg xmlns="http://www.w3.org/2000/svg" fill="#FFF" viewBox="0 0 101.62 101.81"><path d="M27.94 52.69s-4.5-5.81-6.94-8.81.75-4.32.56-6C9.94 31.31 0 32.63 0 32.63S9.94 38.44 12.75 42s8.06 15.56 8.06 15.56zm-5.44 18 8.81-6-4.68-6.38-9.75 6 5.62 6.38zm.37 18c-2.62-4.88-2.43-8.25-2.43-8.25L15.56 75c-2.44 3.38-2.81 4.88-2.25 9.75s3.38 16.31 3.38 16.31l5.62.75 5.06-3.93.57-4.5s-2.44.18-5.07-4.69zM53.44 28 51 21.38l-.19.44-.18-.44L48.19 28l-2.44 5.75.25.21-.06.17 4.87 3.93 4.88-3.93-.06-.17.25-.21L53.44 28z"/><path d="M30.94 23.63c1.68.75 8.43 6 8.43 6s-.37-.94 1.32-3.19 8.43-13.13 10.12-13.31c1.69.18 8.44 11.06 10.13 13.31s1.31 3.19 1.31 3.19 6.75-5.25 8.44-6 5.43-.57 5.43-.57l3.94-17.23s-10.5 16.13-14.44 15.75S51.24.02 50.81.02 39.94 21.21 36 21.58 21.56 5.83 21.56 5.83l3.94 17.25s3.75-.2 5.44.55zm-8.07 51-7.5-8.44s-1.87 1.69-.56 3.19a80 80 0 0 1 5.06 6.93c.94 1.5 1.69 2.25 3.38 1.32.86-.48 3.27-2.12 5.58-3.74l.13-.1c.64 1.26 1.47 3.12 1.23 3.84-.62 1.85-3.57 3.56-3.57 3.56s5.07.56 6.38-2.25c1.06-2.27-.69-5.76-1.4-7 1-.75 1.84-1.35 2.15-1.61 1.12-.93.37-2.81.37-2.81zM75 81.19s-2.94-1.71-3.56-3.56c-.24-.72.59-2.58 1.22-3.84l.14.1c2.31 1.62 4.72 3.26 5.57 3.74 1.69.93 2.44.18 3.38-1.32a82.16 82.16 0 0 1 5.06-6.93c1.31-1.5-.56-3.19-.56-3.19l-7.5 8.44L67.5 67.5s-.75 1.88.37 2.81c.31.26 1.12.86 2.16 1.61-.72 1.26-2.47 4.75-1.41 7 1.32 2.83 6.38 2.27 6.38 2.27zM54.19 63.38s-1.32.93.18 3.56 6.57 15.75-2.81 19.5c-.26.1-.51.22-.75.34a7.39 7.39 0 0 0-.75-.34c-9.37-3.75-4.31-16.88-2.81-19.5s.19-3.56.19-3.56c-3 5.25-9.57 4.12-9.94 4.68s-4.31 8.44.19 14.82c3.84 5.45 10.7 14.86 12.61 17.48.31.45.51.7.51.7s.2-.25.51-.7c1.91-2.62 8.77-12 12.62-17.48 4.5-6.38.56-14.25.18-14.82s-6.93.57-9.93-4.68zm27 17.06s.18 3.37-2.44 8.25-5.06 4.69-5.06 4.69l.56 4.5 5.06 3.93 5.63-.75s2.81-11.43 3.37-16.31.19-6.37-2.25-9.75zm-1.13-42.56c-.19 1.68 3 3 .56 6s-6.93 8.81-6.93 8.81l7.12 4.87s5.25-12 8.06-15.56 12.75-9.37 12.75-9.37-9.93-1.32-21.56 5.25z"/><path d="m84.75 64.31-9.75-6-4.69 6.38 8.82 6 5.62-6.38zM59.14 47.58l20.74-15.14-6.18-6.56-22.88 15.8-22.87-15.8-6.19 6.56L42.5 47.58l-13.63 9.25 5.82 8.25 16.12-11.53 16.13 11.53 5.81-8.25zm-2.6 4.7-5.63-3.94-5.62 3.94-.75-1.06 5.24-3.67-20.52-14.39.75-1.07 20.9 14.66 20.91-14.66.75 1.07-20.53 14.39 5.24 3.67z"/></svg>