<svg xmlns="http://www.w3.org/2000/svg" fill="#FFF" viewBox="0 0 1096 1162"><path d="M901 241.7c-5.5-12.7-11-25.2-17-39.2 4.3 1.5 7.5 2.6 10.8 3.6 7.5 2.4 15.1 4.3 22.5 7.1 15.1 5.8 29.8 12.3 43.5 21.3 12.8 8.4 23.9 18.6 32.7 30.9 9 12.7 15 26.9 13.3 43-.6 5.8-1.7 11.6-3.2 17.2-1.6 5.9-10 9.3-14.5 6.4-4.2-2.7-4.4-6.5-.3-9.3 1.7-1.2 3.8-1.9 6.9-3.4-1.3-5.3-2.1-11.3-4.2-16.8-7.4-18.4-20.5-32.3-37.3-42.4-7.5-4.5-16.3-7.1-24.5-10.5-7.8-3.2-15.7-5.6-25.1-4.1 34.5 55.1 73.7 105.8 124.4 147.1-13.4 2.8-18.1 14.3-13 31.4-62.6 19.7-125.2 39.4-188.1 59.1-5.2-12.5-13-23.1-22.3-32.5-6.9-7-15.5-11.1-24.7-14.4-11.4-4.1-22.7-7.8-35.2-7-14.7.9-27.7 5-37.7 16.4-8.3 9.5-15.9 19.6-20 31.6-3 8.9-2.8 18-.8 27.5 1.8 8.4 6.5 14.4 12 20.8-8.4 3-16.7 5.9-24.9 8.7-14.4 5-28.9 10.1-43.3 15.1-6.6 2.2-13.4 3.8-19.8 6.4-4.4 1.7-7-.1-9.3-3.1-3.7-4.8-7.4-9.7-10.6-14.9-.8-1.3-.7-4.2.2-5.5 6.8-9.4 14-18.5 20.9-27.7 4.9-6.5 9.6-13.2 14.5-19.8 7.3-9.7 14.8-19.2 21.9-29 13.1-17.9 25.8-36.1 39-53.9 9.9-13.4 20.6-26.4 30.5-39.8 6.5-8.8 12.2-18.1 18.7-26.9 20.4-27.7 40.9-55.3 61.4-82.9 5-6.7 9.9-13.5 15-20.1.7-.9 2-1.8 3-1.7 8.9.5 17.7 1.1 26.5 1.9 10.1.9 20.2 1.5 30.2 3.1 9.1 1.3 18.1 4 27.9 6.3zm-647.9-56.3C295 244.2 337 303 378.8 361.6c-16.7 20.7-23.7 44.2-20.8 69.9 2.5 22.8 19.4 46.1 45.2 52.3 11.1 2.7 22.1 1.3 33.1-1.3 8.1-1.9 14.8-6 20.5-13.2 5.2 6.5 10.2 12.6 14.9 18.8 11 14.7 21.9 29.4 32.7 44.2.8 1.2 1.2 3.8.5 4.8-4.3 5.8-8.9 11.4-13.7 16.8-.8.9-3.1 1.1-4.4.7-23.2-7.6-46.4-15.5-69.6-23.1-16.2-5.3-32.5-10.1-48.7-15.4-16.1-5.3-32-11.1-48.1-16.4-21.1-7-42.3-13.7-63.4-20.5-26.4-8.6-52.7-17.4-79.1-25.8-5.9-1.9-7.6-6.7-9-11.1-6.1-19.9-11.4-40-10.3-61.2.7-13.1 0-26.2 1.3-39.2 1.2-12.4 3.9-24.7 6.4-36.9 2.1-10.5 4.3-21 7.6-31.1 1.9-5.9 6.1-10.9 9.1-16.4 8.1-14.7 16.4-29.4 24.2-44.3 3.9-7.5 7-15.3 10.7-22.9.4-.9 3.2-1.6 4-1 6 4.1 12.6 2.1 18.7 1.3 4.2-.7 8.1-3.3 12.5-5.2zm684.6 682.7c-7 10.9-14.4 21.6-21 32.7-9 15.1-17.7 30.5-25.9 46-5.3 10.1-9.6 20.8-14.6 31.9-10.4-8.4-20.8-6.9-31.1.5-9.5-13.4-18.9-26.9-28.4-40.2-20.8-29.3-41.7-58.6-62.5-88-4.2-5.9-7.9-12-12.5-17.5-2.8-3.3-3.6-6-3-10.4 1.7-13.3-.6-26.5-7.2-37.9-6.1-10.6-15.1-19.2-26.9-23.9-6.4-2.5-13.3-3.7-19.6-6.4-2.7-1.2-4.8-4.3-6.7-6.9-12.5-17.1-25-34.3-37.4-51.5l-19.5-27c18.8-13.4 39.2-22.4 60.6-28.6 13.3-3.9 26.8-2.7 40.6 2.3 41.7 15 84 28.4 125.8 43.1 6.6 2.3 12.7 7.2 18.1 12 15.9 13.9 27.7 30.9 37.7 49.4 4.7 8.7 10.3 17 14.2 26 4.3 9.9 6.9 20.4 10.6 30.6 5.1 14.2 5.6 29 7 43.8.6 6.1 1.7 12.2 2.5 18.4-.4.5-.6 1-.8 1.6zM538.6 378.2c-8-7.3-15.7-15-24.2-21.7-12.7-10.2-27.8-16.2-43.6-19.1-12.1-2.2-24.7-2.7-37-2-14.3.8-27.7 5.8-39.4 14.4-1 .8-2.2 1.4-3.3 2.1-42.3-58.1-84.6-116.1-126.9-174.1 11-11.4 14.5-16.1 8.8-31.3 86.9-8.5 167-36.7 242-80.5.8 15.8 11.9 20.8 25.5 21.3.1.9.2 1.9.2 2.8 0 95.1 0 190.3-.1 285.4 0 .8-.1 1.7-.1 2.5-.6.1-1.3.2-1.9.2zm505.2 78.5c-1.4 6.3-2.9 12.5-4.1 18.9-2.1 11.1-4.7 22.2-5.7 33.4-1.7 17.7-2.8 35.5-3.1 53.3-.2 15.9 1 31.8 1.8 47.7.5 10.5 1 21 2.2 31.4 1.7 14 4 28 6.4 41.9 1.7 9.6 3.9 19 6.1 29.1-4 0-8-.6-11.8.1-7.6 1.4-12.7 6.3-14.7 13.7-1 3.5-2.5 3.7-5.3 2.7-14.8-5.2-29.5-10.4-44.3-15.4-10.4-3.5-20.8-6.7-31.3-10.1-7.8-2.5-15.6-4.8-23.2-7.8-3-1.2-5.9-3.5-8-5.9-12.7-14.5-26.8-27.4-42.2-38.9-17.1-12.7-36.4-21.6-55.6-30.3-7-3.1-14.5-4.9-22.8-7.6 34.1-31.5 50.1-69.5 43.3-116.9 2.1-.6 4.8-1.4 7.4-2.2 19-6.2 38-12.3 56.9-18.5 11.6-3.9 23.1-8.1 34.7-12 15.1-5.1 30.3-9.9 45.4-14.9 12.8-4.3 25.6-8.5 38.2-13.1 4.2-1.5 5.7 0 6.4 3.5 1.6 8.6 7.4 13.6 15 16.7 2.4.7 5.3.7 8.3 1.2zM135.5 839.3c-8-8.9-15.8-18-24.1-26.6-8.3-8.6-17-16.6-25.6-24.9-5.3-5.1-10.6-10.2-16.5-15.9 15.5-6.7 13.2-19.1 8.8-32.5 64.1-20.4 127.9-40.8 192.2-61.3-1.8 10-4 18.6-4.7 27.3-1.5 18.9-.9 37.8 5.4 55.9 2.1 6 6 11.7 10.1 16.7 10.7 13 24.6 22.1 39.8 28.5 8.8 3.7 18.7 5.8 29 3.8 7.6-1.5 15.5-1.4 23.2-1.9-7.1 10.2-14.3 20.5-21.4 30.8-.7 1-1.4 1.9-2.1 2.9-5.6 7.4-11.3 14.7-16.7 22.3-11 15.4-21.7 31-32.6 46.4-6.2 8.8-12.7 17.4-18.9 26.2-8.2 11.7-16.2 23.5-24.3 35.2-1.8 2.6-3.7 5-5.7 7.9-6.5-5.5-14.1-7.3-22.4-6.8-1 0-2.3-.2-2.9.3-5.2 3.9-6.4.2-8.4-3.8-7.9-15.9-15.8-31.8-24.3-47.4-5.4-10.1-11.6-19.7-17.7-29.4-3.5-5.4-7.6-10.4-11.4-15.7-4.5-6.3-9-12.7-13.5-19.1-1-1.3-2.1-2.6-3.1-3.9-2-2.6-4-5.2-6.1-7.9-.7-.7-1.3-1.4-2-2.1-.3-.3-.6-.7-1-1-1.1-1.3-2.1-2.6-3.1-4zm138.9 171c2.3-11.3-5.2-16.8-13-22.5C335.8 885.7 410 783.7 484.3 681.6c8.2 3.6 13.1 9.5 17.3 15.6 9.3 13.4 16.3 28.1 21.1 43.7 6.3 20.3 10.5 40.9 6.1 62.4-2.7 13.3-4.3 27-8.3 39.9-4.7 15.1-10.3 30.2-17.6 44.2-7.1 13.5-16.7 25.8-25.7 38.2-16.5 22.6-38.9 38.5-62.5 52.8-4.2 2.5-7.9 5.9-12.3 7.8-7.6 3.4-15.4 6.4-23.4 9-11.8 3.9-23.7 7.5-35.7 10.8-5.3 1.4-10.9 2-16.4 2.3-16.5 1-33 1.6-49.5 2.4-.7-.1-1.4-.2-3-.4zM558 863.1c8.4 7 16.2 14.9 25.3 20.8 12.6 8.2 26.7 14.2 41.6 17 24.6 4.6 49 4.8 71.8-7.6 11.7-6.4 21.4-15.1 28.1-26.8 2.6-4.5 5.6-8.8 9-14.1 33.6 44.6 66.8 88.7 100.4 133.3-10.3 7.9-19.7 16.4-13.4 31.8-86.2 6.8-165.4 34.3-239.5 78.7-1-6.2-2-11.8-9-12.8-5.3-.8-10.5-1.8-16.3-2.9 0-.4-.2-1.7-.2-3 0-70.7.1-141.4.1-212 0-.7.1-1.3.1-2 .6-.3 1.3-.3 2-.4zM50.4 454.2c7.2.3 14.1-1.6 19.1-7.5 2.2-2.7 3.9-6.1 5-9.5 1-3 1.6-3.4 4.8-2.3 12.3 4.3 24.7 8.2 37.1 12.2 5.2 1.7 10.8 2.7 15.4 5.4 2.4 1.4 3.5 5.5 4.8 8.5 4.9 11.2 9.5 22.5 14.3 33.7 7 16.2 17.4 30.3 28.6 43.8 15 18.1 31.5 34.7 50.5 48.6 14.8 10.9 30.7 20.1 47.6 27.4 8.8 3.9 17.8 7.3 26.8 11 1 .4 1.8 1.3 3.1 2.3-4.5 5.2-9.1 10.4-13.6 15.6-3.7 4.2-7.1 8.7-10.9 12.7-2 2.1-4.6 4.1-7.3 5-38.8 13.5-77.7 26.9-116.6 40.2-17.8 6.1-35.7 11.9-53.5 17.9-8.6 2.9-17 6-25.6 9-1.5.5-3.1.9-4.9 1.3-1.7-14.7-12-18.3-24-19 19.2-85.7 16.4-170.8-.7-256.3zM554.8 86.5c5.3-.7 10.7-1.1 15.9-2.3 5.9-1.4 9.2-5.9 11.1-11.5.3-.9 1-1.6 1.6-2.4 74.3 44.1 155.4 66.3 240.8 74.8-6.6 9.4-7.2 23.1 5.5 30.1 3 1.6 4.3 3.4 1.3 6.5-2.4 2.4-4.2 5.3-6.2 8-1.9 2.5-4.2 3.5-7.6 3.5-19-.2-38-.4-57 .3-7.4.3-14.8 2.4-22 4.3-13.8 3.6-27.7 7.1-41.1 11.8-8.1 2.8-15.6 7.5-23 11.9-14.7 8.8-29.4 17.6-43.7 27.1-5.3 3.5-9.2 9-13.9 13.5-6.9 6.7-14.5 12.8-20.8 20-8.4 9.6-16.5 19.6-23.7 30.2-5.6 8.1-9.6 17.2-14.3 25.9-.5 0-1-.1-1.5-.1-.1-30.8-.2-61.5-.2-92.3-.1-27.3.1-54.5-.2-81.8-.2-19-1-38.1-1.5-57.1 0-6.9.3-13.7.5-20.4z"/><path d="M794.8 229.5c-2.3 2.8-4.1 4.7-5.6 6.8-9.6 13.3-19.2 26.6-28.9 39.9-15.5 21.3-31.1 42.4-46.6 63.7-9.9 13.7-19.5 27.6-29.4 41.2-13.2 18.1-26.7 35.8-39.8 54-11.8 16.3-23.2 33-34.9 49.4-8.1 11.4-16.3 22.6-24.6 33.9-3.2 4.3-4.5 4.2-6.4-.7-4.9-12.1-9.1-24.6-9.8-37.7-.8-13.9-2-28-.7-41.7 1.2-14.1 4.4-28.2 8.2-41.9 7.5-27.4 20.4-52.6 38.1-74.7 10.6-13.2 23.2-24.9 35.9-36.2 10.1-9 21.1-17.2 32.5-24.5 12.1-7.9 25.3-14 39.5-17.9 10.6-2.9 21-6.8 31.6-9.7 12.7-3.7 26-5.1 40.9-3.9zM181.5 469.7C282 502.3 381 534.3 481.7 566.9c-8.8 4.8-16.3 9.5-24.3 13.2-11.4 5.2-23 9.9-34.7 14.5-8.2 3.3-17 4.1-25.7 4.6-3.8.2-7.5.7-11.3.9-20.3 1.1-39.8-3.4-59.3-8.4-17.6-4.6-33.7-12.4-49.8-20.6-11.2-5.7-22.2-11.8-31.6-19.9-10.4-8.9-20.3-18.5-29.3-28.8-8.3-9.5-15.6-20.1-22.6-30.6-4.3-6.6-7.4-14-11.6-22.1zm360 610.2c-10.7 1.8-23.5-1.3-28.1 13.7-42.4-25.5-88.4-42-135.9-56.4 9.8-4 18.8-7.9 28-11.3 16.6-6.3 32.2-14.7 46.9-24.6 6.7-4.6 13-10 19.1-15.4 11.4-10.3 22.8-20.6 33.7-31.3 9.4-9.3 16.2-20.7 22.6-32.2 3.6-6.5 7.1-13.2 11.2-20.9 1 2.1 2.4 3.7 2.4 5.3.1 57.5.1 115.1.1 173.1zm158-275.6c7.4 11.1 4.4 33.2-4.9 43.8-12 13.6-26.6 21.4-44.8 20.1-13.9-1-28-2.8-40.1-10.5-10.7-6.8-20.1-15.1-27-26.1-8.1-12.8-13.1-26.3-14-41.4-.3-5.9-2.4-11.9-1.6-17.5 1.7-12.5 4.5-24.8 7.3-37.1 1.4-5.9 3.6-11.8 6-17.4 6.3-14.9 18.1-25.6 29.1-36.9 1.9-2 2.5-1.1 3.8.9 9.6 13.9 19.4 27.6 29.3 41.3 7.6 10.6 15.4 21.1 23.1 31.7-4.7 2.2-10.1 3.7-14 6.8-6 4.9-11.7 10.5-16.4 16.7-4.9 6.5-7.8 14-7.7 22.6.3 14.7 11.1 30 25.7 34.6 12.4 3.9 23.6 2.9 33.8-4.6 3.6-2.7 6.4-6.9 8.4-11 1.7-3.5 1.5-7.9 2.3-11.8.2-1.4.9-2.4 1.7-4.2zM475.7 670.2c-20.5 27.7-40.7 54.9-60.9 82.1-.4-.2-.8-.3-1.2-.5.9-9.4-1.5-18-5.8-26.2-9.8-18.5-29.3-26.9-49.6-23.9-8.7 1.3-15.1 5.3-19.9 11.6-4.9 6.5-7.5 14.2-7.7 22.5-.2 6.8.3 13.4 3.8 19.4 5.1 8.6 12.8 12.9 22.6 13.8 2.3.2 4.7 0 7.5 1.2-2.7 1.3-5.4 3.6-8.1 3.6-7.7 0-15.9.6-22.8-2-15.6-6-27.4-17.2-31.3-33.8-2.7-11.2-2.1-23 .5-34.6 2.9-13.3 8.1-25.5 17.4-35.3 4.6-4.8 10.3-8.9 16.3-11.8 11-5.4 22.2-10.6 33.8-14.2 13.3-4.2 27.2-4.6 41.4-3.3 19.3 1.7 35 11.3 51 20.6 4.8 2.8 8.7 7.2 13 10.8zm321.1-162.6c-.5 12.8.5 24.6-3.3 36.7-5.9 18.7-17.2 32.3-33.5 42.2-8 4.9-15.5 10.7-25.2 12.1-3.2.4-6.4 1.3-9.6 1.5-15.1 1.3-30.2.5-45-2.2-9.4-1.7-18.5-5.3-27.3-9.2-8.9-3.9-17.5-8.8-25.7-14-4-2.5-7-6.6-10.7-10.4 25.8-8 50.3-15.7 74.8-23.3 5.5-1.7 10.9-4.3 16.5-5.1 4.3-.6 8.9.5 13.3 1.4 15.5 3.1 37.2-1.8 43.8-18 .4-1 1.6-2.1 2.7-2.4 9.4-3.2 19-6.1 29.2-9.3zM514 522.5c-10-14-19.2-26.7-28.3-39.5-6.2-8.8-12.3-17.7-18.2-26.7-.9-1.4-1.1-3.8-.8-5.5 3.8-20.3-.9-37.3-21-48.3-4.3-2.3-10.2-1.6-15.3-2.4-1.5-.2-3.6-.4-4.3-1.4-3.8-4.9-7.3-10.1-10.8-15.1 9.7-10.5 21.1-11.4 33.9-9.8 8.2 1.1 16.8.1 24.4 4 7.9 4 16 8 23.1 13.1 14.8 10.8 25.6 25 30.1 42.9 4.2 16.7 6.3 33.7 1.1 50.7-1.9 6.3-4 12.6-6.2 18.7s-4.8 12.1-7.7 19.3zm423.7 345.6c.2-.6.4-1.1.6-1.7 1.5-1.1 3.4-1.8 4.4-3.2 9.4-12.9 18.7-25.9 28.4-39.4.6 2 1.5 3.5 1.6 5.1.9 12.5 2.2 25 2.4 37.5.4 19.7-2.9 38.9-8.7 57.7-5.5 17.8-11.9 35.2-23 50.3-6.8 9.2-14.5 17.8-26.4 21.1-15.9 4.4-18.3 1.6-28.3-10.4-1.3-1.6-2.4-3.6-2.9-5.6-.7-3.1-.1-6.2 3.4-7.1 3.1-.8 5.8-.2 6.5 4 .8 4.3 5.5 5.8 10.2 4.2 7.8-2.7 12.9-8.8 17.3-15 9-12.8 14.3-27.3 15.4-43.1.9-12.5 2-25 2.1-37.5.2-5.7-1.9-11.3-3-16.9zm85.6-95.6c-19.3 14.8-36.1 32.1-51.7 51.9-6.6-41.6-22.6-77.9-45.1-111.7l.9-1.2c6.5 2 13.1 3.9 19.6 5.9 11.9 3.6 23.8 7.2 35.6 10.9 10.4 3.3 20.9 6.6 31.2 10.1.8.3 1.4 2.3 1.3 3.5-.3 2.4-1.1 4.7-1.7 7-2.5 9.8.9 17.2 9 22.8.6.2.8.7.9.8zm-899.5-432c-5.6 16.6-3.4 33.5-2.8 50.1.5 14 4.6 27.8 7.1 41.7.3 1.4.8 2.9.6 4.3-.1.8-1.5 2.3-1.9 2.2-15.3-4.5-30.5-9.2-45.8-13.9-.9-.3-1.6-1-2-1.3.9-4.5 2.2-8.7 2.5-13 .5-7.1-2.6-12.6-9.1-15.9-2.7-1.4-2.3-2.8-.5-4.5 11.8-11.4 23.6-22.8 35.5-34.1 5.3-5.1 10.6-10.1 16.4-15.6zM58.3 727.8c3 8.6 5.8 16.6 8.8 25.3-8.7 1.4-17 2.7-25.2 4-9.8 1.5-18.6 5.4-27.2 10.3-2.3 1.3-6.1 1.7-8.4.7-3.6-1.5-5.4-5.3-4.7-9.5.7-4 4-5.8 7.2-6.2 12.1-1.8 22.7-7.3 32.8-13.7 5.5-3.4 10.7-7 16.7-10.9zM1038 436.4c-2.6-6.9-5.2-13.6-7.8-20.3-1.4-3.6.5-4.5 3.6-5 8.4-1.3 17-2 25.3-4.2 6.5-1.7 12.6-5.1 18.9-7.9.9-.4 1.5-1.5 2.4-1.7 3.5-.6 7.7-2.2 10.5-1 2.2.9 3.8 5.7 3.6 8.6-.2 4.6-4.3 7.3-8.5 8-16.5 2.6-29.8 11.3-43 20.5-.7.5-1.2 1.1-1.9 1.6-.9.6-1.8.9-3.1 1.4zm-.5 291.3c13.5 11.1 28 19.3 43.9 24.7 1.1.4 2.1.7 3.2.8 6.9.6 8.6 2.2 8.1 8.8-.2 2.4-1.4 5.8-3.1 6.6-2.3 1-6.2.9-8.3-.5-11.8-7.5-24.7-11.1-38.5-11.9-4-.2-8-1-11.9-2.2-1-.3-2.1-3-1.7-4.2 2.4-7.3 5.3-14.4 8.3-22.1zm-969.6-315c-2.7 7.4-5.1 14.6-7.9 21.6-.3.7-3.1 1.3-3.7.8-11.8-9.7-25.6-15.9-39.7-21.4-3.5-1.4-7.8.1-10.9-3.5-2.1-2.5-3.1-8.9-1-11.6 2.5-3.3 5.4-4.8 10.1-1.8 13.2 8.3 27.3 14.1 43.2 14.5 3.2 0 6.2.8 9.9 1.4zM562.1 72.8h-26.8c1.7-6.8 3.3-13.3 5-19.6 3.1-11.9 4.9-23.8 1.5-36-.9-3.3-.6-7-.1-10.4.4-3.5 3.1-4.7 6.5-4.6 4 0 6.7 1.4 7.4 5.5.3 2.1.4 4.4-.1 6.5-3.9 18.4-1.2 36.2 4.3 53.8.5 1.4 1.4 2.9 2.3 4.8zm-302.9 88.9c-7 5.3-13.6 10.3-20.4 15.5-4.5-16.2-12.7-29.8-22.2-42.7-2-2.8-5.5-4.6-7.2-7.5-1.5-2.5-2.7-6.2-2-8.9.5-2.1 3.8-4.2 6.2-4.9 3.9-1 6.1 1.9 7.9 5.2 3.9 7 7.1 14.6 12.1 20.6 5.4 6.5 12.6 11.4 19 17 2 1.9 4 3.6 6.6 5.7zm588.4 5.6c-2-1.7-3.9-3.6-6.1-4.9-2.9-1.6-1.9-2.9-.1-4.3 3.9-3 7.9-5.9 11.7-9 9.9-7.8 17.5-17.4 22.7-28.9 1.8-4 3.8-8.2 9.2-7 2.3.5 5.2 2.1 6 4 .9 2.1.7 5.8-.6 7.6-4.1 5.4-9.9 9.7-13.4 15.5-6.7 11-12.2 22.8-18.5 34.8-2.2-1.7-5.3-3.9-8.4-6.2-.9-.5-1.7-1-2.5-1.6zm-79.4 334.9c-.7-22.8-17.5-28.5-36.8-33.6 4.3-1.8 7.3-3.9 10.5-4.3 16-1.9 30.2 1.8 41.4 14 3.1 3.4 6.5 6.7 9.4 10.3 2.3 2.9 1.8 5.8-1.9 7-7.5 2.4-15.1 4.4-22.6 6.6zm114 550.6c-2.3-2.1-4.4-3.3-5.5-5.1-4.2-6.6-7.6-13.7-12.1-20.1-2.8-3.9-6.8-7.1-10.4-10.3-4-3.5-8.2-6.9-12.5-10.1-2.3-1.7-2.8-2.6 0-4.6 4.5-3.2 8.6-7.1 12.8-10.7 3-2.6 4.8-2.3 5.9 1.7 3.9 14 11.8 25.8 20.4 37.2 1.9 2.5 4.3 4.7 6.7 6.7 3.1 2.5 4.4 6 2.8 9.1-1.3 2.5-4.8 3.8-8.1 6.2zm-624.4-49.5c-7.4 6.6-15.1 12.6-21.7 19.5-4.8 5-8.5 11.2-12.5 17-1.5 2.2-2.5 4.9-4 7.1-2.2 3.1-5.2 4.6-8.9 2.8-3.8-1.8-5.3-5.8-3.2-9.6 1.9-3.4 4.8-6.3 7.3-9.4 9.1-11.3 16.6-23.4 21.3-37.2 1.7-5.1 3.2-5.5 7.4-2 4.6 3.9 9.4 7.7 14.3 11.8zm277.4 91h23.1c-1.5 10.5-3.1 21-4.5 31.6-.6 4.7-1.1 9.5-.9 14.2.2 4.6 1.3 9.2 1.9 13.9.6 4.7-2.8 6.5-6.4 7.1-4.2.7-6.5-2.5-7.4-5.9-.7-2.8.2-5.9.2-8.9.2-8.4 1.2-16.9.3-25.2-1.2-8.9-4.1-17.6-6.3-26.8zM876.6 189c1.2 3.7 2.4 7.1 3.6 10.8-13 1.3-25.1-.6-37.2-3-1.3-.3-2.6-.3-3.8-.8-.9-.3-2.3-1.4-2.3-1.5 1.7-2.9 3.5-5.9 5.6-8.5.3-.4 2.7.5 3.9 1.2 5.6 3.7 11.9 5.2 18.5 4.6 3.7-.2 7.4-1.7 11.7-2.8zM752.9 640.1c24.5 1.1 46.9 8.8 68.1 20.6-.2.6-.4 1.1-.5 1.7-22.7-6.9-45.3-13.8-68-20.8.1-.5.3-1 .4-1.5zM397.3 430.4c-5-12.6-3.2-23.9 5.4-35.1 2.6 3.4 5 6.4 7.2 9.4.4.6.7 2.1.3 2.5-5.6 6.5-9.1 14-11.6 22-.1.4-.7.7-1.3 1.2zM554.8 86.5c-.2 6.8-.5 13.5-.7 20.3-.5-1.6-1.3-3.2-1.3-4.8-.2-4.3-.2-8.6 0-12.8 0-1 1.3-1.9 2-2.7zM135.5 839.3c1 1.4 2 2.7 3 4.1-1-1.4-2-2.7-3-4.1zm12.1 15c1 1.3 2.1 2.6 3.1 3.9-1-1.3-2.1-2.6-3.1-3.9zM556 338c.5 0 1 .1 1.5.1l-.9 3.3c-.3-.1-.5-.1-.8-.2.1-1 .2-2.1.2-3.2zM349.6 842.2c.7-1 1.4-1.9 2.1-2.9-.6 1-1.4 1.9-2.1 2.9zM558 863.1c-.7.1-1.3.2-2 .2.2-.6.3-1.3.5-1.9.4.5.9 1.1 1.5 1.7zm-418.5-18.7c.7.7 1.3 1.4 2 2.1-.7-.8-1.3-1.5-2-2.1z"/><path d="m847.6 167.3 2.4 1.5c-.8-.4-1.6-.9-2.4-1.5zm-309 210.9c.6 0 1.3-.1 1.9-.1 0 .4-.1.8-.1 1.3l-1.8-1.2z"/></svg>