<svg xmlns="http://www.w3.org/2000/svg" fill="#FFF" viewBox="0 0 576.6 540.7"><path d="M576.6 218.3c-2 1.1-4.2 2-5.8 3.5-7.8 7.2-15.5 14.6-23.2 22-1.6 1.6-3.4 3-6.5 5.6V79.1l35.5 31.2v108zM123.9 164l36.6-20c1.2-8.5 2.3-16.8 3.8-25.1.6-3.2.4-5.7-1.8-8.3-6.7-7.8-13.4-15.7-19.9-23.7-2.9-3.5-5.5-7.2-9.1-11.9 8 .4 14.7.4 21.3 1.1 8.8 1 17.4 2.6 26.2 3.6 1.5.2 3.4-1 4.7-2.1 7.7-6.7 7.8-14.2 3.8-23.3-5.2-11.7-9-24-13.4-36-.6-1.6-1.2-3.3-1.7-5l.9-1c4.7 2.1 9.5 4.2 14.1 6.4 9 4.4 17.9 8.9 26.8 13.5 2.5 1.3 4.1 1 6.1-1 7.5-7.3 16.8-12.7 26.9-15.6 3.5-1 4.7-.2 6.1 2.6 2.1 4.3 4.2 8.7 6.7 12.8 3 5 6.6 5.5 9.9.8 4.5-6.5 8.1-13.6 11.8-20.6 1.7-3.3 2.7-7 4.3-11.2 1.7 3.8 2.9 7 4.4 10.1 3.6 7.1 6.8 14.4 11 21 3.9 6.1 7.8 5.6 11.4-.6l8.7-15.3c10.8 2.6 20.7 6.8 28.5 14.6 3.7 3.7 6.8 3.9 11.2 1.6 10.9-5.7 22-11.1 33-16.6 1.6-.8 3.2-1.4 6.2-2.6-.9 2.9-1.4 4.6-1.9 6.1-5.5 15.2-10.9 30.5-16.5 45.6-1.1 2.9-.8 5 1.4 7.1 1.1 1 2 2.2 2.6 3.6 2.5 5.8 7 6.5 12.5 5.5 7.4-1.4 14.7-3 22.1-3.7 6.2-.6 12.5-.1 19.4-.1-2.6 3.5-5 7.1-7.7 10.4-6.7 8.1-13.4 16.1-20.3 24.1-2.2 2.6-2.7 5.2-2 8.7 1.5 7.2 2.5 14.4 3.2 21.7.2 2.4.7 3.7 3 4.8 10 5 19.8 10.1 29.6 15.4 1.8 1 3.1 2.7 5.1 4.4-8.9 3.1-17.1 5.9-25.3 8.7-2 .8-4.1 1.5-6.2 1.9-6.9.9-9.6 5.6-11.6 11.4-2.6 7.9-5.6 15.7-8.2 23.6-.6 1.8-1.2 4.1-.5 5.6 4.8 10.4 9.8 20.7 14.9 30.9 1 2.1 3 3.7 5.5 6.8-5.5-1.2-9.4-2.2-13.4-3-7.8-1.8-15.5-3.6-23.3-5.2-3.8-.8-7.5-.5-10.6 2.6-1.9 1.8-4.1 3.4-6.4 4.8-2.6 1.6-5.2 2.1-7.2-1.3-6.6-11.3-13.3-22.6-20.2-34.2 2.4-2.2 5.1-4.9 7.9-7.4 20-17.4 29-39.5 28.3-65.8-.1-2.5 0-5-.3-7.5-1-7.9-1-7.8-8.9-8.3-1.6-.1-3.1-.7-4.3-1.9-10.7-12.8-21.2-25.8-31.7-38.5-1.7-2-2.4-3.8-.5-6.2 3.2-4 6.3-8.1 9.5-12.1 3.6-4.3 7.3-8.5 11.7-13.7-11.7-2.1-23.7-1.3-35 2.2.8 3.3 1.8 5.8 1.9 8.3.5 11.4-8.2 20.3-19.6 20.2-7.2 0-14.3-.4-21.5-.3-14.1.1-26-13-18.4-28.3-11.2-3.8-22.5-4.6-35.5-2.4l16.5 18.8c.8.9 1.7 1.6 2.4 2.6 4.6 6 4.9 7 .2 12.9-9.9 12.3-20 24.5-30.3 36.5-1.1 1.3-4 1.9-5.8 1.6-4.1-.7-5.7.7-6.3 4.7-3.1 20.3-.2 39.5 10.5 57.1 5.8 9.7 13.4 18.2 22.6 24.9 2.1 1.5 2.5 2.8.9 5.3-6.3 9.8-12.3 19.7-18.3 29.6-2.7 4.5-5.3 5.6-9 1.8-7-7.4-15.1-7-23.7-5.1-7.3 1.6-14.5 3.6-21.8 5.4-1.8.4-3.7.6-6.3 1 7.8-10.9 14.1-22.8 18.7-35.4.8-2.6.8-5.4 0-7.9-2.3-7.6-5.4-15-7.8-22.6-2-6.3-5-10.5-12-12.3-10.2-2.6-20.1-6.6-30.2-9.9l-.4-1.7zm90-91.8c-3.5 3.7-6.8 6.6-9.4 9.9-6.1 7.9-5.1 7.1.9 13.3 1.7 1.8 3.3 3.8 5.4 5.2 1.1.7 3.8.8 4.5.1 4-4.2 7.6-8.7 11.7-13.6l-13.1-14.9zm148.9 1.5c-3.7 4.1-7.3 7.9-10.5 12.1-.8 1.6-.8 3.5.1 5 2.8 3.9 5.9 7.6 9.3 11 .8.8 3.5.9 4.4.2 12.6-10.5 12.7-13 1.4-24.4-1.5-1.5-3-2.8-4.7-3.9z"/><path d="M104.3 20.3c8 0 16 1.1 23.6-.3 8.5-1.5 12.6 2.5 17.1 8.3 9.2 11.8 19 23.1 28.5 34.5-1.1 4.2-3.7 5.1-7.5 4.4-11-2-22-3.5-32.9-5.6-3.4-.6-5.4-.3-6.4 3.4-1.7 6.4-3.7 12.7-5.2 19.1-.2 1.5.3 3 1.2 4.1 6.5 7.2 13.1 14.3 19.7 21.2 2.9 3 4.6 6.2 3.8 10.7s-.8 9.3-1.5 13.9c-.2 1.6-1.1 3-2.3 4-9.4 5.9-18.9 11.5-28.3 17.5-1.7 1.2-2.9 3.1-3.3 5.2-.5 4.3.1 8.7-.2 13-.3 3.5 1.5 4.6 4.3 5.5 10.2 3.1 20.3 6.2 30.4 9.6 1.6.8 2.8 2.1 3.5 3.7 2.9 7.2 5.7 14.5 8.2 21.9.5 1.3-.1 3.2-.6 4.6-4 10.1-7.9 20.1-12.2 30.1-1.4 3.2-1.5 5.6.6 8.7 6.3 8.9 7.2 9.4 18.3 6.2 5.1-1.5 10.2-2.9 15.4-4.3.6-.1 1.2-.1 1.9 0-5.2 6.9-10.2 13.6-15.4 20.2-5.6 7.1-11.3 14-17 20.9-1 1.2-2.6 2.5-3.9 2.6-13.1.2-26.3.1-39.9.1l.1-283.2zm292 239.2c5.3 1.5 10.5 3 15.8 4.3 3.9.9 7.8 1.6 11.7 2.1.8.1 1.8-.6 2.6-1.1.4-.2.6-.8 1-1.1 5.6-6.1 6.8-12.1 2.5-20-4.4-8.1-7.1-17.2-10.5-25.9-.4-1-.5-2.1-.3-3.2 2.7-7.3 5.3-14.7 8.4-21.8 1-1.9 2.8-3.4 4.9-4.2 9.9-3.4 20-6.3 29.9-9.7 1.5-.5 3-2.8 3.2-4.5.4-4.3-.2-8.7.2-13 .4-3.9-1.9-5-4.6-6.6-9.4-5.5-18.7-11.4-27.9-17.2-.8-.5-1.1-1.9-1.6-2.9-.2-.4 0-1-.1-1.5-3.9-13.7.4-24.4 11.6-33 3.1-2.4 5.1-6.2 8.2-8.7 5-4.1 4.4-9.1 3-14.2-1.3-4.6-3.1-9.1-5.2-13.5-.6-1.2-3.5-2.1-5.2-1.9-11.4 1.6-22.7 3.4-34 5.4-3.7.7-5.6-.5-6.9-4.3 1.3-1.6 2.8-3.5 4.4-5.4 9.6-11.5 19.2-23 28.6-34.7 2.2-2.7 4.4-3.2 7.7-3 7.8.5 15.6.3 23.5.4h5.1v282.8c-1.7.1-3.5.3-5.2.3-10.8 0-21.7-.1-32.5.1-2.8.2-5.5-1.2-7.1-3.5-8.6-11.2-17.2-22.4-26-33.5-1.7-2.2-3.8-4.1-5.7-6.2l.5-.8zM93.6 26.9c0 14.9.1 29.7-.2 44.4 0 2.2-1.6 4.8-3.2 6.4-6.1 5.9-12.2 11.8-18.8 17.2-8.1 6.6-16.7 12.5-26.2 19.6V75.2c-7 4.7-10.5 9.2-10.4 17.5.5 49.7.2 99.3.1 149v7.4c-10-9.4-18.9-18.2-28.3-26.3-5-4.3-6.8-8.8-6.8-15.4.4-30.7.2-61.3.1-92-.2-3.5 1.2-6.8 3.9-9 29-25.6 57.9-51.2 86.7-77 1.2-1 2.2-1.8 3.1-2.5zm157 284.1c3.9-6 8.5-8.2 15.5-8 16.6.7 33.3 0 49.9.7 3.5.1 6.8 4.1 10.6 6.7-4.9 3.9-8 7.8-14 8-3.8.1-6.8 3.6-6.9 7.9-.6 24.9-1.1 49.9-1.5 74.8.1 3 .4 5.9.8 8.9h-33.2c0-10.5.1-20.7 0-30.9-.3-17.6-.8-35.2-1.2-52.8-.1-4.5-3.1-8-6.7-8.2-5.9-.3-9.1-4-13.3-7.1z"/><path d="M93.3 107.2V219c-11.1-9.9-21.9-19.4-32.7-28.9-4.3-3.9-8.7-7.8-12.8-11.9-1.2-1.2-1.9-2.9-2.1-4.6-.1-9.5 0-19 .2-28.5 0-1.5.6-3.5 1.7-4.3 15.1-11.2 30.2-22.2 45.7-33.6zm194.8 44.5c1.4 2.6 2.3 4.8 3.5 6.7 3.2 5.4 6.8 9.9 13 12.9 15.3 7.5 22.9 20.9 23.8 37.7 1 18.6-6.1 33.6-22.5 43.1-19.6 11.4-44.2.4-53.6-20.1-11-24.2-.9-54.1 23.8-63.5 3.2-1.2 5.3-5.6 7.6-8.7 1.6-2.2 2.7-4.9 4.4-8.1zm27.4 60.4-.5-.1c-.1-1.7-.2-3.3-.5-5-2-11.4-8.2-19.6-19.2-23.4-10.1-3.5-18.7-.4-25.9 7-10.4 10.7-10.9 29.7-1.2 41.2 13.6 16.2 37.1 12.2 44.5-7.6 1.4-3.9 1.9-8.1 2.8-12.1zm-289 222.7 83.3-52.9c8.5 11.1 17.1 22.3 25.6 33.5 1.9 2.5 1.2 4.3-1.3 6.2-5.4 3.8-10.5 8.1-16 11.9-2.1 1.6-4.6 2.5-7.2 2.7-27.5.1-55-.1-82.4-.2-.5 0-1-.1-1.5-.1l-.5-1.1zm522.9 1.5H494c-9.5 0-19 .4-28.5.2-2.8-.3-5.4-1.3-7.6-2.9-5.2-3.5-10-7.8-15.2-11.3-3.3-2.2-3.8-4.2-1.4-7.2 6.7-8.4 13.4-16.9 20.1-25.4l5.6-7 82.7 52.5-.3 1.1zm-134.5 15c-9.9-7.7-19.4-14.3-27.6-22.1-2.2-2.1-1.8-8.6-.4-12.2 3.5-8.7 7.4-17.5 12.7-25.2 8.8-12.7 18.8-24.6 28.3-36.8.3-.3.6-.5 1-.7 8.4 6.4 16.6 12.7 25.1 19.2-17.4 22.9-35.8 45.4-39.1 77.8zm-292.6-78.1 25.2-19.2c5.4 6.5 11 13.2 16.4 20.1 10 12.9 20.3 25.5 25.4 41.4 2.8 8.3 1.8 12.5-5.2 18-7.1 5.6-14.4 11.1-22.5 17.3-3.2-32-21.8-54.6-39.3-77.6zm-63.2-65.8c5.7 4.6 10.9 8.9 16.3 12.9 1.6 1.3 3.6 2 5.7 2.2 8.3.4 16.6.3 24.9.6 2.3.1 4.5.6 8.1 1.1-5.4 6.5-10 12-14.6 17.6-.5.6-1.2 1.1-1.8 1.8-5.2 6-5.2 6-1.2 12.7 2.7 4.5 5.3 9.1 8.4 14.3l-45.8 30.8v-94zm403.8 17.3c2.2-.6 4.5-1 6.7-1.2 3.3-.4 6.7-.4 10 0 14.1 2.4 25-3.4 34.4-13.2.8-.8 1.7-1.5 3.1-2.6v94l-46-30.8c3.9-6 7.8-11.6 11.2-17.5.7-1.2.3-3.9-.6-5.1-5-6.4-10.3-12.5-15.5-18.8-1-1.3-1.9-2.7-3.3-4.8zm-200.4 91.9h51.4c.7 12.2 1.7 24.4 10.5 34.9-4.4 4.5-8.5 9-12.9 13.2-.8.8-2.5.8-3.8.8-13.1 0-26.3-.1-39.4-.3-1.3.1-2.6-.3-3.7-1-4.3-4.1-8.4-8.5-12.6-12.9 8.5-10.4 9.9-22.3 10.5-34.7zM488.9 214V112.2c12.1 8.7 23.8 17 35.4 25.5.9.7 1.4 2.5 1.4 3.8.1 12.3.1 24.7 0 37 0 1.4-.3 3.2-1.3 4-11.5 10.5-23.3 20.7-35.5 31.5zm.2 303c-.3 0-.6-.1-.9-.2-19.5-13.9-39.5-27.2-56.6-44.1-1.1-1-1.8-2.3-2-3.7-1-13.3 1.2-26.7 6.5-39 9.1 6.8 18 13.3 26.9 20 4.7 3.5 9.6 6.7 13.7 10.8 2.2 2.2 3.2 6 3.8 9.2 3 15.5 5.7 31.2 8.6 47zm-348.9-87.6c5.3 12.4 7.5 25.9 6.5 39.3-.3 1.4-1 2.7-2 3.7-17.2 16.9-37.1 30.3-56.7 44.1-.4.2-.7.3-1.1.3 1.3-6.3 2.5-12.5 3.8-18.7l6.9-34.2c.2-1.3.7-2.4 1.6-3.4 13.4-10.3 27-20.5 41-31.1zM387 449c10.8 9.2 21.1 18.8 32.2 27.3 6.1 4.7 8.8 10.2 10.9 17.4 3.7 12.4 9.1 24.3 13.7 36.4 1.2 3.2 2.4 6.4 4 10.6-11-7-20.5-14-31-19.5-15-7.8-21.3-22.8-31.4-34.7-5.6-6.7-7.7-13-3.9-21.4 2.7-5.1 3.9-10.9 5.5-16.1zm-197.7-.3c2.7 8.4 5.5 17 8.1 25.6.2 1.1 0 2.2-.6 3.1-8.2 11.5-16.2 23.3-25 34.3-3.1 3.8-8.2 6.1-12.4 8.9-9.9 6.4-19.9 12.7-31 19.8 1.6-4.2 2.8-7.3 3.9-10.5 5.2-14.5 10.1-29.2 15.9-43.5 1.5-3.7 5.1-6.7 8.2-9.4 10.8-9.6 21.8-18.9 32.9-28.3zM93.1 302.3c-1.9-1.7-3.6-3.1-5.3-4.7C75 285.7 62 273.9 49.4 261.8c-2-2.1-3.2-4.8-3.4-7.6-.3-14.3-.2-28.6-.2-42.9 0-.8.1-1.5.2-2.6.6.2 1.1.4 1.6.7 13.9 12.9 27.8 25.9 41.8 38.6 2.9 2.5 4.5 6.2 4.2 10-.2 14.1.1 28.3.1 42.4.1.5-.2.9-.6 1.9zM299 95.6c6.9 0 12.7-.1 18.5.1 1.5.1 2.8.7 3.8 1.8 8.6 11.2 17.2 22.4 25.4 33.9.9 1.3.5 4.7-.7 6.1-6.6 8.3-13.5 16.4-20.1 24.2L296 148.6c4.6-5.1 9.5-10.6 14.4-15.9 3.3-3.5 2.9-6.2-.8-9.6-7.5-7.1-9.8-16.7-10.6-27.5zm-21.9-.3c-.4 10.5-2.9 19.7-10.1 27.1-4.9 5-5.2 5.2-.7 10.6 4.5 5.4 9.5 10.6 13.9 15.4l-30 13c-6.7-8-14-16.7-21.1-25.7-.8-1-.4-3.8.5-5 8.1-11.1 16.4-22.1 24.8-33 1.2-1.3 2.8-2.1 4.6-2.2 5.9-.4 11.7-.2 18.1-.2zm211.5 202.5c0-17.3 0-33.2.1-49.1.1-1.3.7-2.5 1.7-3.4 11.6-10.5 23.2-20.8 35.4-31.8v12c0 11.3.1 22.7-.1 34 0 1.8-.5 4.2-1.7 5.4-11.3 10.8-22.9 21.4-35.4 32.9zM242.5 455.9c4.9 5.6 9.3 11 14.1 16 1.7 1.5 3.9 2.4 6.1 2.5 17 .3 33.9.4 50.9.4 2.4-.1 4.7-1.1 6.4-2.8 4.8-5 9.2-10.4 14-15.9 3.9 2.4 7.6 4.3 10.8 6.9.9.7 1 4 .1 5.1-4.9 6.3-10.1 12.4-15.4 18.3-.9 1-3 1.5-4.5 1.5-15.6.1-31.3.2-46.9.1-8.8 0-17.6-.2-26.4-.6-1.8-.1-4.2-.5-5.4-1.8-5.1-5.5-9.7-11.4-14.6-17-2.1-2.4-1.7-4 .7-5.7 3.3-2.1 6.4-4.4 10.1-7zm283.3-344.8c-11.2-8.6-21.4-16.3-31.5-24.2-4-2.8-6.2-7.5-5.9-12.3.5-13.6.1-27.2.1-41.4.7.3 1.4.6 2.1 1 11 9.7 21.9 19.5 32.8 29.2 1 .9 2.2 2.4 2.2 3.6.2 14.3.2 28.6.2 44.1zM314.2 292h-51.9v-31.1c17.4 6.8 34.2 8 51.9.1v31zm-59.5 201.6h67.2l-33.5 36.6-33.7-36.6zm-11.9-287.2c-17.8-18.7-28.8-39.2-28.2-65 4.3-1.8 7.2-.9 10.3 2.8 7.6 8.8 15.7 17.2 23.8 25.6 2.2 2.4 2.9 4.4 1.2 7.4-3.8 7.1-5.8 15-5.9 23-.3 2.1-.7 4.2-1.2 6.2zm90.5-.3c-.5-1.9-.8-3.9-1-5.9-.1-8-2.1-15.9-5.9-22.9-1.4-2.5-1.3-4.3.9-6.6 8.8-9.3 17.2-18.9 26.2-28.1 1.6-1.6 4.9-1.5 7.4-2.2 4.3 18-11.4 55-27.6 65.7zm63.4 317c-16.8 4.4-32 11.4-49.4 11.5l19.9-48.1 29.5 36.6zm-187.5-37 19.7 47.6c-7 2.8-34.6-6.3-48.7-11.3l29-36.3z"/><path d="M302.7 212.3c0-8.9-6.9-16.7-15-17-7.1-.2-14.1 7.9-14.2 16.5 0 9.2 7.1 17 15.5 16.8 7.3 0 13.7-7.8 13.7-16.3z"/><path d="M302.7 212.3c0 8.5-6.5 16.2-13.6 16.4-8.4.1-15.5-7.7-15.5-16.8 0-8.6 7-16.8 14.2-16.5 8.1.2 14.9 8 14.9 16.9z"/></svg>