<svg xmlns="http://www.w3.org/2000/svg" fill="#FFF" viewBox="-400 -360 1381 1525"><path d="M774.3 403c.6-5.5.9-11.1 1.8-16.6 5.5-34.3 7.2-68.9 5.5-103.5-1.8-36.7-8.1-72.6-22.8-106.7-6.8-15.8-15.5-30.5-27.3-43.2-12.4-13.2-27.9-7.6-33.2 8.4-5.1 15.5-9 31.4-13.1 47.1-7 26.8-13.8 53.6-25.6 78.7-12.3 26.1-28.9 49.4-50.8 68.5-5.9 5.1-11.8 10.1-18.6 14.4 1.5-2.7 3-5.3 4.6-8 10.6-17.8 18.9-36.6 20.8-57.3 1.2-13.6-.3-27.6-1-41.3-.5-8.1-1.9-16.2-2.9-24.3-2-15.9-10.5-28.3-23.3-36.8-6.6-4.4-15.4-6.7-23.5-7.5-17-1.6-33.9.5-50.4 4.7-19.9 5-38.3 13.7-55.9 23.6-17.6 9.9-32 24-43.5 41-9.3 13.7-14.8 29-21.7 43.7-2.7 5.7-5.7 11.2-9.6 16.7-.1-1.3-.3-2.6-.3-3.9-.3-27.2 3.1-53.7 13.3-79.2 14.6-36.7 35.1-69.3 64.3-96.2 6-5.5 12.5-10.5 19.2-15.1 14.4-9.9 24.1-23.6 31.1-39 4.7-10.3 3.9-22.2 0-32.3-6.1-15.9-13.7-31.7-22.2-46.6-7.8-13.6-20.8-22.1-35-28.5-3.3-1.5-6.6-2.9-9.9-4.3.1-.6.1-1.2.2-1.7 3.7 0 7.3-.3 11 .1 13.7 1.5 26.6 5.7 39 11.7 10.2 4.9 20.4 9.7 30.6 14.6 2.4 1.2 4.6 2.7 6.9 4 12.5 6.8 24.9 14 37.7 20.2 7.8 3.8 16.4 4 25 2.5.5-.1 1-.3 1.5-.2C614.4 12 627.7 1.1 642-7.4c14.8-8.8 25-21.6 34.5-35.4 3.8-5.5 8.1-10.6 11.8-16.1 3.5-5.2 7.1-10.5 9.7-16.1 6-12.7 11.9-25.6 17.2-38.6 4.8-11.7 4.2-24.1 3.4-36.4-1.3-18.5-10.6-33.7-19.9-48.9-4.9-7.9-9.6-15.9-17.8-21.1-5.4-3.5-7.5-4.1-13-.5-1.1.7-2.3 1.2-4.2 2.2-.2-2.4-.5-4.1-.5-5.8.5-29.6-8.1-56.2-25.5-80.4-8.8-12.2-18-23.9-29-34.1-5.9-5.5-12.8-10.1-19.2-15.1-1.3-1-2.5-2.3-3.5-4 7.8-.6 15.2.8 21.8 4.6 17 9.8 33.8 20 48.6 33.2 5.1 4.5 10.7 8.5 16.5 12.1 17.1 10.8 30.7 25.5 44.9 39.5 20.5 20.2 40.9 40.6 60.3 61.7 12.5 13.6 23.3 28.7 34.8 43.1 4 5.1 8.3 10 12 15.3 6.5 9.4 12.9 19 18.9 28.7 7.9 12.9 15 26.3 23.2 39 12.9 19.9 24 40.6 34.3 61.9 15.3 31.6 27 64.4 36.7 98 9 31 18.2 61.9 26.6 93 3.1 11.4 4.5 23.2 6 34.9 3.5 26.6 8.3 53.1 9.3 79.8 1.6 43.9.7 87.9.6 131.8-.1 40-8.2 79-15.9 118.1-1.6 8-2.9 16-4.5 24.1-.4 2-1.2 3.9-1.8 5.8-.5-.1-1-.1-1.4-.2-.2-1.8-.4-3.7-.5-5.5-.4-18-.1-36-1.3-53.9-3.3-48.5-8-96.7-19.1-144.2-9.1-38.6-19.3-76.8-30.9-114.7-5.4-17.5-13.1-33.7-25.1-47.9-5.5-6.5-12.4-9.3-19.9-11.4-1.8-.5-4.4 1.5-6.5 2.6-9.2 4.6-11.8 12.6-12.3 22.2-1.1 22.3-3.4 44.5-8.7 66.3-7 28.8-18 56.1-32 82.1-7.2 13.5-15.5 26.3-23.3 39.5l-1.2 2.1c-.8-.4-1.3-.6-1.8-.9z"/><path d="M297.6-120.9c-1.7 2.2-3.1 4.2-4.8 6-9.4 10.2-13 22.6-13.2 36.2-.6 33.6 6.3 65.7 19 96.6 2.2 5.5 5.3 10.6 7.3 16.8-3-1.4-6.1-2.6-9-4.2-2.8-1.5-4.6-.8-6.3 1.6-3.3 4.5-4.5 9.4-2 14.5 1.2 2.6 1.2 4.3-.9 6.1-3.6 3-4.6 6.9-4.6 11.5 0 10.5-.4 21-.8 31.4-.3 7.4 1.5 14.2 5.6 20.4 1.4 2.1 3.3 4.8 6.3 1.9 17.2-16.3 37.5-27.9 57.7-40 4.3-2.6 8.3-5.7 12.9-7.6 12.4-5.2 25-9.9 37.5-14.6 5-1.9 10.1-3.5 15-5.3 11.5-4.4 23.6-4.1 35.5-5.9-25.1 12.8-41.7 33.7-56.2 56.6-14.4 22.8-26.9 46.7-35.6 72.4-8.1 24.1-13.4 48.7-11.1 74.5.2 2.5-.5 5.3-1.5 7.7-10.6 24.9-13.5 51.5-15.6 78.1-1.8 23-2.4 46.3-1.3 69.3 1.3 24.5 9.1 47.6 22.8 68.4 4.4 6.7 11.1 10.4 17.9 14 13.6 7.2 28.2 6.8 42.9 5.6 11.6-.9 23-3 33.3-9.2.4.2.9.5 1.3.7-.4 1.8-.4 3.9-1.3 5.4-13.5 22.5-23.9 46.4-31.8 71.4-9.3 29.8-19.9 59.3-28.3 89.4-8.8 31.4-16.1 63.2-23.2 95-2.4 11.1-2.4 22.8-2.7 34.2-.1 4.3 2 8.6 3.1 13.2-5.6 4.7-11.6 10-17.8 15-23.6 18.8-41.5 42.4-58.2 67.3-10 14.9-21.6 28.7-32.6 43-16.2 20.9-32.2 42-48.9 62.6-19.7 24.2-42.1 45.8-65 67-39.3 36.3-77.5 73.7-112 114.6-3.8 4.5-4 4.3-10.6 3.3 1.2-1.7 2.1-3.1 3.1-4.5 22-29.9 39.1-62.4 54.2-96.4C105.4 1001 127.5 937 150 873.2c11.5-32.5 20.5-65.7 27.5-99.4 6.3-30.3 10.3-60.9 11.7-91.9 1.2-27.4 3.7-54.8 4.6-82.2.7-21.4-.1-42.9-7.5-63.6-3-8.4-8.3-13.8-16.4-16.8-6-2.2-12.1-4.3-18.8-6.7 4.4-4.5 8.7-9.2 13.3-13.6 13.7-12.9 27.5-25.6 41.2-38.6 4.2-4 8.3-8.2 11.8-12.8 2.9-3.7 5.7-3.4 9-1.4 8.2 4.8 13.6 12.1 17.9 20.3 7 13.4 9.7 27.9 10.9 42.7 2.1 27 4.8 54 6.4 81.1 1.2 20.6 2 41.3 1 61.9-1.3 27.4-.6 54.9-6.2 82-6.3 30.6-11 61.6-22 91-2.7 7.3-5.7 14.5-9 21.5-11.7 24.3-23.3 48.6-35.5 72.6-14.1 27.5-27.5 55.5-44.6 81.3-5.5 8.3-11.1 16.6-16 25.6 1.2-1.1 2.7-2 3.6-3.3 12-16.5 24.4-32.8 35.8-49.8 13.6-20.5 26.5-41.5 39.4-62.5 11-17.9 22-35.7 32.1-54 6.8-12.5 17-16.9 30.3-16.7h4.3c-2.5-5.2-5-10.1-7.4-15-6.2-13.1-6.8-27.1-.4-39.5 6.5-12.7 15.1-25.1 32.5-24.7 8.5.2 16.9.2 25.4.2 2.3 0 4.6 0 7.3-1.1-3.7-2.5-7.4-5-11.2-7.4-17.6-11.5-30.9-26.4-35-47.6-3.3-17.4 7.8-35.7 24-42.7 13.6-5.9 27.9-9.4 42.2-12.5 3-.7 6.1-.6 9.2-.9l.3-1.5c-2.2-1-4.5-2-6.7-3.1-9.4-4.6-18.9-8.9-28-14-9.2-5.3-18.1-11.2-26.7-17.4-5.2-3.7-9.9-8.3-14.6-12.7-.9-.8-.9-2.7-1-4.2-1.5-25.9-2.5-51.9-4.7-77.8-1.4-15.7-3.9-31.4-7.4-46.7-2.7-11.9-7.3-23.4-11.6-34.9-4.8-12.8-13.7-22.2-26.4-28.9-31.7 37.8-68.5 70-109.5 97.7.9-1.2 1.7-2.5 2.7-3.6 19.7-22.5 33.8-48.6 47-75.2 9-18.2 9.1-37.6 4.7-57-.6-2.7-.5-4.1 2-5.6 35.4-20.3 61.4-50.1 84.3-83 6.3-9 13.3-17.7 18.2-27.4 10-20.1 18.5-40.9 22.7-63.1.4-1.9.4-3.9.6-7-7.8 5.3-15.8 6.9-24.4 7.3-19.2.9-35.4-6.1-49.1-18.5-9.6-8.7-17.5-19.4-27.1-30.2 11.6-3.7 22.6-4.4 30.6-14.2-2.3-2.2-4.4-4.2-6.9-6.5.6-.8 1.5-2.4 2.7-3.7 8.9-9.6 8.8-21.5 8.7-33.4-.1-7.5-.9-14.9-1.7-22.3-.2-1.9-1-4-2.1-5.6-2.7-4-4.3-7.3-1.9-12.8 2-4.5-1.1-9.7-5.1-13.2-.9-.7-3.1-.4-4.4.1-3.1 1.2-6.1 2.8-10.3 4.7.7-2.1.9-3 1.3-3.8C229 11.5 234.8-10 239.2-32.2c3.6-18 4.4-35.9 3.8-54.1-.4-11.9-3.9-21.9-14-28.8-1.8-1.2-3.8-2.1-5.7-3.2.4-.8.9-1.7 1.3-2.5 3.2-1.6 6.3-3.3 9.5-4.9 10.9-5.4 11.7-15.1 2-22.1-5.4-3.8-10.2-8.7-17.3-9.3-1-.1-1.9-1.1-3.2-1.9 3.4-4 6.4-7.9 9.8-11.4.8-.8 2.8-.9 4.2-.7 20.8 2 41.6 1.8 62.3-.3 3.9-.4 7 .2 9.6 3.7 2.1 2.9 5 5.3 8.2 8.6-4.1 1.5-7.8 3.1-11.7 4.3-6.7 2.1-12 6-14.8 12.4-3.1 7-.8 13 6 16.8 2.7 1.8 5.4 3.1 8.4 4.7zM117.5 304.6c-14.6-.1-29 .7-43.4-3.7-33.2-10.4-63.4-26.4-91.6-46.5-9.3-6.6-18.4-13.8-26.5-21.8-10.4-10.4-19.7-21.9-29.4-32.9-13-14.9-24.1-31.2-33.5-48.6-15.4-28.3-26.3-58.4-36-89-8.3-26-19.7-50.7-35.2-73.4-14-20.5-29.2-39.9-48.1-56.1-16-13.7-32.7-26.6-49.3-39.6-11-8.5-22.3-16.7-33.8-24.6-34.7-23.7-71.3-43.8-110.7-58.6-8.9-3.4-17.8-6.9-26.7-10.4.1-.4.3-.9.4-1.3 4.1 1.2 8.3 2.2 12.4 3.5 31.8 10.4 63.5 20.8 95.3 31.4 54.2 18 107.9 37.4 158.1 64.9 21.5 11.8 42.8 24.2 62.9 38.3 21.3 15 42.2 30.9 59.7 50.5 3 3.3 6.3 6.5 8.8 10.1 4.8 7 12.2 8.5 19.6 10.5C-18 10.5-6.6 14 4.8 17.7c3 1 5.5 3.1 8.9 5-1.3.6-1.7.9-1.9.9-16.8-5.2-31.4 1.3-45.5 9.2-10.2 5.8-16.4 19.9-12.3 30.7 2.4 6.3 7.4 12.5 12.9 16.6 22.8 16.8 48.3 17.6 74.7 10.8.9-.2 1.9-.4 2.8-.6.5.5 1 1.1 1.5 1.6-1.2.6-2.7 1-3.7 1.9-17.9 15.9-30 35.8-36 58.7-4.7 17.8-1.6 35.8 4.6 53 3 8.3 6.2 16.6 10.7 24.1 9.3 15.6 22.4 27.9 36.7 39C75.6 282 94 293.4 114.7 301c1.2.5 2.3 1.4 3.4 2.1l-.6 1.5z"/><path d="M259.7 202.7c-6.3 22.2-11.2 44.3-23.3 63.6-13.6 21.7-27.2 43.5-42 64.4-7.4 10.5-17.4 19.2-26.4 28.6-.9.9-2.5 1-3.8 1.5 0-1-.4-2.2 0-3 9.9-19.2 12.5-39.6 12.2-60.9-.4-27-8.3-51.1-25.5-71.9-16.9-20.4-40.6-27.8-65.2-16.9-8.7 3.9-12.6 12-15.9 20.3-1.1 2.9-2.2 5.7-4.2 8.5-3.5-6.7-5.2-13.7-5.2-20.9.2-15.9 2.9-31.5 9.4-46.2 5.6-12.8 10.8-25.9 18-37.8 6.7-11 15.7-20.5 24-30.5 3.4-4.1 7.4-7.6 11.3-11.3 9.2-8.8 18.2-18.1 31.4-21-6 33 .9 64.2 21.7 90.1 20.7 25.7 47.8 42.9 83.5 43.4zm4.9-533.6 6.6 26.4 15.3 63.9c1.8 7.4 3.3 14.9 5.3 22.2.8 2.9 2.8 5.4 4.4 8.6-8.1 5-12.9 14.1-19.3 21.7-2 2.4-6 3.2-9.3 5.4 9.4-3.5 16 .4 21.7 7.8-17.4 1.7-34.5 2.5-52.1-.5 4.8-7.2 10.3-11.4 19.1-6.8 0-1.3.1-1.8 0-1.8-7.3-2.4-10.6-9.1-15.2-14.4-3.6-4.2-7.4-8.2-10.5-11.5 1.9-5.2 4.4-10.3 5.7-15.8 7.7-31.3 15.2-62.6 22.8-93.9 1-4 2.6-7.8 4-11.6l1.5.3z"/></svg>