<svg xmlns="http://www.w3.org/2000/svg" viewBox="0 0 418 418"><path fill="#fff" d="M209 418C93.57 418 0 324.43 0 209S93.57 0 209 0s209 93.57 209 209-93.57 209-209 209zm1-394C107.28 24 24 107.28 24 210s83.28 186 186 186 186-83.28 186-186S312.72 24 210 24zm132 181 2-10h34s-.5-9.67-2-17-5-16-5-16-2.67 6.17-4 9-6 9-6 9h9l1 9h-22l-3-7s5.67-3.83 12-13 14-30 14-30 8.79 16.81 12 33c3.16 15.91 3 33 3 33zm5.91-37.59c-14.49-47.84-52.89-85.29-101.29-98.46 3.02-2.41 6.36-4.94 9.38-6.95 3.21-2.14 7.68-4.26 11.96-6.07 42.4 16.34 76.29 49.78 93.23 91.87-1.74 3.88-3.83 7.88-6.19 11.2-2.33 3.28-4.8 6.1-7.09 8.41zM236 71l-7-3V46l9 1v9s6.17-4.67 9-6 9-4 9-4-8.67-3.5-16-5-17-2-17-2v34l-10 2V30s17.09-.16 33 3c16.19 3.21 33 12 33 12s-20.83 7.67-30 14-13 12-13 12zm-12 107c0 8.28-6.72 15-15 15s-15-6.72-15-15 6.72-15 15-15 15 6.72 15 15zM195 39s-9.67.5-17 2-16 5-16 5 6.17 2.67 9 4 9 6 9 6v-9l9-1v22l-7 3s-3.83-5.67-13-12-30-14-30-14 16.81-8.79 33-12c15.91-3.16 33-3 33-3v45l-10-2zm-33 23c3.02 2.01 6.36 4.54 9.38 6.95-48.4 13.17-86.8 50.62-101.29 98.46A67.753 67.753 0 0 1 63 159c-2.36-3.32-4.44-7.32-6.19-11.2 16.94-42.09 50.84-75.53 93.23-91.87 4.28 1.81 8.75 3.93 11.96 6.07zM72 182l-3 7H47l1-9h9s-4.67-6.17-6-9-4-9-4-9-3.5 8.67-5 16-2 17-2 17h34l2 10H31s-.16-17.09 3-33c3.21-16.19 12-33 12-33s7.67 20.83 14 30 12 13 12 13zm4 32-2 10H40s.5 9.67 2 17 5 16 5 16 2.67-6.17 4-9 6-9 6-9h-9l-1-9h22l3 7s-5.67 3.83-12 13-14 30-14 30-8.79-16.81-12-33c-3.16-15.91-3-33-3-33zm-5.91 37.59c14.49 47.84 52.89 85.29 101.29 98.46-3.02 2.41-6.36 4.94-9.38 6.95-3.21 2.14-7.68 4.26-11.96 6.07-42.4-16.34-76.29-49.78-93.23-91.87 1.74-3.88 3.83-7.88 6.19-11.2 2.33-3.28 4.8-6.1 7.09-8.41zM182 348l7 3v22l-9-1v-9s-6.17 4.67-9 6-9 4-9 4 8.67 3.5 16 5 17 2 17 2v-34l10-2v45s-17.09.16-33-3c-16.19-3.21-33-12-33-12s20.83-7.67 30-14 13-12 13-12zm14-47c-7.97 15.48-21.83 25.72-36 26s-25.23-9.28-31-17-7.83-15.08-11-24c-3.01-8.49-10.23-22.88-20-32-9.97-9.31-22-16-22-16s18.45 3.04 29 10c11.03 7.28 19.97 16.92 25 27 3.81 7.63 9.37 18.32 14 21s16.32 3.99 30-14c10.43-13.72 9.57-29.48 9-33s-6.23-8.68-12-4-10.03 14.12-14 17-14.23 1.92-18-10 3.37-17.68 8-22 10.17-11.08 10-17-1.83-14.48-9-11-15.83 15.72-18 22-4.03 10.32-7 11-9.83-10.88-14-13-10-7-10-7 9.77-1.68 15-6 17.17-14.68 24-18 14.57-2.68 18-2c1.67.33 3.84-2.03 5.64-4.54C157.06 170.04 160 162 160 162s12.57-15.13 18-26 11.77-24.33 13-36 1-19 1-19 9.37 22.07 10 35 0 37 0 37l-6.49 6.4c-5.75 4.18-9.51 10.94-9.51 18.6 0 12.7 10.3 23 23 23s23-10.3 23-23c0-7.66-3.76-14.42-9.51-18.6L216 153s-.63-24.07 0-37 10-35 10-35-.23 7.33 1 19 7.57 25.13 13 36 18 26 18 26 4.97 13.53-8 37-41 26-41 26-18.41-1.67-32.29-14.79c-.98 2.35-2.39 5.51-3.71 7.79-2.37 4.08-7 11-7 11s10.57-7.28 17-5c6.24 2.21 13.5 5.53 18.53 16.92 3.82.02 9.97.35 14.47 2.08 4.74 1.82 10 5 10 5s1.57-17 12-28 25.37-15.08 35-14 22.57 4.12 29 16 3.37 27.12-1 35-7.03 12.52-5 18 5.77 12.72 13 14 12 1 12 1-11.03 7.92-26 0-17.83-21.48-17-29 5.57-18.28 2-23-9.83-8.48-18-5-16.83 12.92-18 21 .74 13.97 1 24c.2 7.88-4.23 15.32-12 12-5.59-2.39-11.83-10.08-13-19-1.13-8.65.57-11.28-3-16-2.33-3.08-8.29-8.57-14.63-12.01 4.5 12.89 1.39 42.92-6.37 58.01zm27 79s9.67-.5 17-2 16-5 16-5-6.17-2.67-9-4-9-6-9-6v9l-9 1v-22l7-3s3.83 5.67 13 12 30 14 30 14-16.81 8.79-33 12c-15.91 3.16-33 3-33 3v-45l10 2zm33-23c-3.02-2.01-6.36-4.54-9.38-6.95 48.4-13.17 86.8-50.62 101.29-98.46 2.29 2.31 4.76 5.13 7.09 8.41 2.36 3.32 4.44 7.32 6.19 11.2-16.94 42.09-50.84 75.53-93.23 91.87-4.28-1.81-8.75-3.93-11.96-6.07zm90-120 3-7h22l-1 9h-9s4.67 6.17 6 9 4 9 4 9 3.5-8.67 5-16 2-17 2-17h-34l-2-10h45s.16 17.09-3 33c-3.21 16.19-12 33-12 33s-7.67-20.83-14-30-12-13-12-13z"/></svg>