<svg xmlns="http://www.w3.org/2000/svg" fill="#fff" viewBox="0 0 70 70"><path d="M54.048 34.783c-.028-.214-.038-.434-.092-.643-.174-.663-.373-1.32-.546-1.983-.233-.89-.689-1.678-1.102-2.489-.341-.671-.663-1.35-1.02-2.012-.164-.303-.394-.57-.593-.853a5.543 5.543 0 0 0-2.315-1.908c-.806-.363-1.653-.538-2.54-.287-.417.117-.483.073-.68-.309-.46-.891-1.148-1.578-1.998-2.097-.452-.276-.907-.56-1.393-.764-.774-.326-1.594-.473-2.439-.382-.565.06-1.129.13-1.688.22-.864.137-2.387 1.39-2.493 2.4-.071.677.105 1.285.363 1.883.062.145.18.162.299.035.697-.745 1.582-.82 2.516-.687.276.038.561.104.808.227.795.402 1.293 1.07 1.474 1.93.149.706.07 1.408-.137 2.118-.41 1.407-1.362 2.34-2.502 3.156-.587.421-1.264.554-1.924.772-.758.249-1.52.293-2.3.3-.698.003-1.344-.219-1.983-.47-.555-.218-1.144-.391-1.65-.694-1.136-.683-2.156-1.53-2.79-2.72-1.031-1.932-1.46-3.994-1.291-6.194a8.37 8.37 0 0 1 1.024-3.416c.287-.525.718-.994 1.154-1.41.486-.464 1.005-.934 1.595-1.235 1.073-.55 2.194-.992 3.39-1.256 1.669-.37 3.299-.255 4.952.06 1.459.277 2.9.596 4.283 1.144.427.17.83.4 1.24.607.823.411 1.689.757 2.453 1.256 1.082.706 2.113 1.501 2.91 2.549.12.16.281.293.426.436.78.76 1.362 1.667 1.842 2.628.687 1.375 1.36 2.76 1.95 4.178.392.942.713 1.93.907 2.93.163.832.1 1.71.12 2.569.004.143-.096.287-.148.432a.332.332 0 0 0-.082-.021z"/><path d="M33.388 54.575c-.523 0-1.056.068-1.565-.013-1.142-.185-2.32-.106-3.426-.55-.834-.334-1.71-.556-2.541-.895-.417-.17-.776-.486-1.154-.747-.048-.032-.054-.127-.08-.193.069-.007.148-.036.21-.017.653.21 1.304.43 1.956.64.11.035.225.05.341.066.523.072 1.046.16 1.572.205a39.25 39.25 0 0 0 2.144.115c.754.022 1.51.004 2.267.014.93.011 1.823-.098 2.645-.594.671-.407 1.404-.745 1.88-1.386.377-.505.665-1.082.946-1.651.18-.365.265-.453.658-.36.826.194 1.629.16 2.416-.188.607-.268.972-.783 1.321-1.302.803-1.202 1.125-2.526.855-3.955a2.286 2.286 0 0 0-.428-.963c-.417-.53-.87-1.046-1.511-1.33-.3-.132-.396-.074-.384.256.033.914-.353 1.574-1.188 1.94a2.26 2.26 0 0 1-.846.174c-.7.014-1.4-.073-2.01-.444-.264-.16-.467-.428-.675-.667-.787-.905-1.167-1.945-1.264-3.16-.135-1.706.463-3.15 1.333-4.52.251-.398.695-.668 1.027-1.02 1.11-1.17 2.471-1.917 4.001-2.357 1.003-.287 2.035-.365 3.072-.131.13.029.268.038.403.048.808.066 1.534.365 2.215.785.33.203.675.39.976.631.978.783 1.985 1.52 2.575 2.701.498.992.691 2.045.896 3.106.235 1.222.15 2.443-.13 3.635-.175.747-.517 1.457-.785 2.182-.38 1.034-1.132 1.816-1.798 2.655-.475.598-.96 1.186-1.457 1.765a12.348 12.348 0 0 1-2.386 2.153c-.741.508-1.513.972-2.255 1.48-1.017.693-2.18 1.042-3.336 1.372-.81.231-1.675.299-2.522.368-1.194.099-2.392.13-3.59.187-.125.006-.253 0-.378 0v-.035z"/><path d="M25.695 17.973c-.265.272-.514.562-.797.81-.575.504-1.185.967-1.752 1.476a7.46 7.46 0 0 0-2.263 3.678c-.427 1.597-.56 3.24-.48 4.896.02.432.08.868.341 1.248.035.053-.02.213-.081.276-.341.355-.706.69-1.048 1.044-.6.629-.82 1.422-.866 2.255-.15 2.715.834 5.013 2.612 7.02.419.47.828.942 1.372 1.269.891.534 1.839.771 2.863.46.53-.16.884-.541 1.13-1.024.315-.617.56-1.254.514-1.97-.014-.216-.054-.318-.309-.266-1.238.245-2.004-.108-2.712-1.183-.676-1.024-.55-2.075-.163-3.142.209-.573.585-.988 1.11-1.33.625-.407 1.267-.715 2.006-.756.498-.027 1.023-.048 1.495.08 1.351.366 2.628.937 3.726 1.815.436.347.783.824 1.11 1.287a5.858 5.858 0 0 1 1.103 3.528c-.012.762.036 1.536-.075 2.283a8.161 8.161 0 0 1-1.092 3.042c-.22.36-.342.797-.614 1.107-.824.946-1.648 1.905-2.795 2.49-.18.092-.365.198-.56.233-.698.121-1.296.594-2.033.577-.704-.016-1.409-.024-2.113-.035-.34-.006-.679.004-1.017-.025-.374-.031-.775-.025-1.11-.166a11.263 11.263 0 0 1-1.703-.91c-.827-.531-1.502-1.25-2.11-2.01-.388-.483-.664-1.062-.984-1.6-1.01-1.704-1.7-3.543-2.228-5.437a14.989 14.989 0 0 1-.518-4.775c.078-1.632.107-3.274.429-4.88.17-.846.486-1.67.8-2.48a18.787 18.787 0 0 1 2.393-4.303c.204-.276.46-.519.718-.75.76-.685 1.526-1.36 2.297-2.034.716-.623 1.56-1.038 2.42-1.422.237-.106.465-.233.698-.349.077-.038.156-.07.233-.104a.89.89 0 0 0 .053.077zm5.2-5.047c-.399-.25-.735-.476-1.082-.679-.893-.523-1.79-1.036-2.687-1.55-.737-.42-1.453-.896-2.227-1.238-1.113-.49-2.27-.878-3.41-1.312-.078-.029-.153-.063-.317-.133.33-.204.579-.403.86-.525 1.108-.478 2.215-.962 3.344-1.387 2.081-.783 4.244-1.242 6.459-1.44.635-.059 1.275-.065 1.912-.1.23-.013.318.074.285.308-.019.142-.015.29-.003.436a.962.962 0 0 1-.2.684c-.144.201-.2.504-.202.764-.015 1.56-.007 3.118-.004 4.677.002.639.396 1.057 1.046 1.113.24.021.484.054.722.03.667-.072 1.057-.518 1.053-1.182-.006-1.27-.017-2.537-.03-3.806-.005-.434-.01-.868-.032-1.302-.005-.108-.05-.255-.129-.311-.257-.18-.21-.428-.208-.673.005-.737.005-.747.754-.735a21.03 21.03 0 0 1 4.486.567c.941.222 1.892.419 2.809.718.98.32 1.929.737 2.882 1.132.436.181.857.401 1.275.62.203.105.384.25.627.412-.133.062-.212.106-.297.137-1.024.38-2.068.718-3.071 1.148-.697.3-1.337.728-2.005 1.094-.864.477-1.736.938-2.593 1.43-.494.283-.962.615-1.443.922-.077.05-.164.085-.245.127-.036-.104-.1-.208-.102-.312-.01-.572-.002-1.143-.004-1.716 0-.619-.004-1.24-.006-1.86 0-.057-.002-.115 0-.173.012-.83.178-.967.96-.754.286.079.568.189.844.303.218.09.301.239.122.451-.05.058-.11.122-.128.193-.03.13-.032.266-.046.401.135.01.295.07.403.02.483-.224.946-.49 1.424-.722.444-.214.897-.405 1.347-.608.077-.034.15-.075.312-.154-.23-.152-.39-.309-.582-.38-.763-.28-1.538-.521-2.304-.795-1.09-.392-2.24-.392-3.403-.567-.01.139-.023.249-.023.359-.006 1.549.011 3.1-.022 4.65-.013.682-.094 1.363-.376 2.011-.413.954-1.063 1.364-2.213 1.415-.337.015-.683.042-1.014-.002-.61-.081-1.22-.234-1.602-.764-.368-.514-.648-1.09-.665-1.739-.053-1.848-.081-3.696-.118-5.544-.002-.114 0-.228 0-.338-1.432-.158-5.794 1.048-6.216 1.715.044.033.087.072.135.097.878.424 1.756.852 2.64 1.27.19.09.412.288.607.072.202-.225-.04-.412-.16-.582-.153-.22-.099-.378.125-.458.427-.152.863-.283 1.299-.41.22-.064.362.052.407.262.048.226.094.457.094.687.006 1.192 0 2.382-.008 3.575-.002.135-.032.272-.056.451zm17.943 49.046c-.442.245-.87.525-1.332.731-.802.36-1.61.714-2.442.998-.859.293-1.764.451-2.62.75-1.522.53-3.102.705-4.686.869-.5.052-1.007.02-1.51.03-.169.004-.217-.08-.211-.235.01-.222.011-.446.006-.667a.684.684 0 0 1 .196-.53c.157-.177.186-.495.203-.755.023-.365-.027-.735-.025-1.104.006-1.18.023-2.363.029-3.544.004-.623-.365-1.077-.986-1.152-.529-.063-1.053-.065-1.507.328a.889.889 0 0 0-.332.731c.012.998.031 1.995.035 2.993.002.532-.038 1.065-.03 1.597.003.376-.051.785.346 1.046.047.03.056.14.056.214.006.282-.003.561.006.843.006.18-.071.237-.239.24-1.34.024-2.668-.118-3.986-.356-.552-.1-1.107-.202-1.646-.355-1.854-.53-3.725-1.017-5.467-1.873-.498-.245-.976-.527-1.538-.832.154-.086.214-.129.28-.154.99-.363 1.997-.687 2.965-1.098.681-.29 1.312-.694 1.964-1.051.942-.517 1.889-1.025 2.819-1.559.502-.29.976-.627 1.464-.941l.218-.141c.033.15.077.262.08.374.007 1.25.019 2.5.01 3.748-.003.824-.16.946-.939.747a6.452 6.452 0 0 1-.874-.31c-.204-.085-.28-.232-.12-.437.066-.082.144-.171.169-.268.03-.121.06-.295-.002-.37-.058-.071-.257-.09-.36-.048-.229.092-.43.249-.653.359-.73.357-1.462.704-2.194 1.055-.06.029-.114.066-.231.135.168.13.291.276.45.336 1.587.588 3.163 1.217 4.888 1.288.154.006.307.04.461.06l.475.058v-.37c.002-1.376.002-2.752.01-4.127.003-.874.061-1.74.407-2.56.245-.583.634-.982 1.248-1.206.73-.266 1.483-.22 2.205-.131.943.115 1.615.692 1.842 1.653.135.571.257 1.158.272 1.74.04 1.55.02 3.1.023 4.65v.305c1.44.154 5.771-1.042 6.232-1.721-.064-.037-.125-.08-.19-.11-.819-.396-1.639-.79-2.455-1.189-.145-.07-.268-.192-.419-.237-.102-.03-.277-.008-.335.064-.06.073-.04.237-.006.347.037.116.123.218.2.317.134.167.08.316-.086.376-.461.167-.932.316-1.405.45-.212.059-.326-.1-.368-.284a3.048 3.048 0 0 1-.089-.631c-.006-1.202 0-2.402.002-3.604 0-.068-.002-.137.008-.203.032-.231.096-.245.3-.12.817.502 1.629 1.008 2.459 1.482 1.19.683 2.382 1.368 3.601 1.995.608.313 1.278.506 1.92.745.469.174.942.336 1.412.503.008.037.016.078.022.116zM7.94 25.559c-.394.295-.494.694-.622 1.06a36.2 36.2 0 0 0-.773 2.494c-.13.482-.168.99-.234 1.49-.054.41-.087.825-.133 1.276.123.008.233.021.343.021 1.444.006 2.889-.005 4.332.022.781.015 1.57.032 2.297.397.535.268.934.625 1.148 1.231.263.745.272 1.515.147 2.234-.224 1.283-.859 1.999-2.415 2.115-1.824.133-3.658.094-5.487.129-.112.002-.226 0-.336 0-.052 1.815 1.065 5.86 1.702 6.291.038-.048.088-.092.115-.148.444-.913.884-1.827 1.326-2.742.063-.131.158-.258.173-.395.012-.106-.073-.31-.129-.315-.147-.015-.305.048-.451.099-.039.013-.049.1-.083.144-.236.301-.38.297-.52-.06-.161-.412-.287-.84-.412-1.267-.075-.259.056-.42.309-.457.295-.043.596-.075.893-.08 1.036-.007 2.074-.003 3.11.01.125.002.293.064.359.157.05.07-.004.25-.062.353-.978 1.757-2.026 3.478-2.923 5.276-.606 1.214-1.001 2.531-1.491 3.805-.033.085-.06.173-.091.258l-.083.014c-.183-.353-.37-.704-.548-1.06a32.86 32.86 0 0 1-.55-1.134c-.196-.432-.39-.866-.557-1.31a9.289 9.289 0 0 1-.361-1.154c-.382-1.614-.808-3.223-1.1-4.856-.185-1.041-.16-2.12-.235-3.18-.02-.267.087-.35.34-.31.113.018.231.002.349.006.196.008.347.03.54.176.247.185.65.212.988.218.822.017 1.645-.023 2.47-.025.647-.002 1.296.027 1.946.03a1.321 1.321 0 0 0 1.29-1.659c-.069-.272-.216-.526-.345-.781-.154-.307-.434-.386-.756-.382-1.27.014-2.537.021-3.807.033-.472.004-.947-.006-1.418.038-.16.014-.304.17-.457.26-.046.028-.094.07-.143.072-.27.008-.542.008-.814.006-.189 0-.185-.139-.18-.268.036-.735.024-1.476.12-2.202.159-1.188.361-2.37.597-3.546.167-.83.405-1.647.642-2.46.125-.43.322-.837.482-1.257.133-.348.245-.7.392-1.042.164-.376.355-.739.536-1.107.172-.344.348-.683.521-1.025.021-.044.037-.09.054-.137.035.014.07.025.104.039.064.197.118.397.193.59.442 1.134.82 2.3 1.349 3.392.731 1.514 1.57 2.975 2.375 4.454.18.33.405.637.604.957.168.27.056.473-.267.475-1.173.006-2.344.014-3.517.004-.84-.006-.96-.164-.752-.959.075-.29.174-.575.291-.849.047-.11.182-.262.263-.255.12.012.281.128.33.24.121.29.34.198.505.139.214-.08.13-.253.05-.411-.444-.882-.885-1.766-1.321-2.65-.083-.157-.135-.321-.213-.522zm54.23-4.615c.168.344.336.685.502 1.029.187.386.378.771.556 1.161.198.442.405.884.565 1.339.19.536.351 1.082.492 1.632.253.98.492 1.964.72 2.95.106.461.212.928.254 1.399.095 1.04.147 2.085.222 3.127.021.28-.054.428-.368.372-.112-.019-.232-.002-.348-.003a.727.727 0 0 1-.517-.18c-.218-.177-.592-.202-.9-.218-.492-.023-.988.03-1.482.027-1.046-.004-2.092-.025-3.137-.03-.639-.005-1.09.433-1.121 1.07-.01.193-.025.388-.021.58.013.715.474 1.17 1.186 1.17 1.52.004 3.04.011 4.56-.002.283-.002.66-.002.825-.17.35-.359.744-.175 1.115-.237.2-.033.212.123.204.266-.05.909-.038 1.827-.171 2.722-.184 1.222-.479 2.425-.732 3.635-.08.386-.158.774-.275 1.15-.207.658-.433 1.31-.668 1.96-.216.6-.428 1.204-.694 1.783-.234.51-.537.988-.853 1.559-.168-.471-.317-.853-.44-1.243-.631-2.008-1.617-3.847-2.659-5.662-.206-.361-.37-.745-.578-1.104-.272-.469-.575-.918-.85-1.385-.065-.112-.133-.305-.082-.378.067-.097.25-.156.386-.158 1.094-.016 2.19-.018 3.283-.012.24.002.483.04.718.085.22.042.355.189.285.42-.142.471-.293.94-.468 1.4-.087.227-.203.21-.392.051-.139-.114-.106-.38-.382-.376-.359.006-.477.141-.316.463.273.556.572 1.1.845 1.655.202.417.38.847.569 1.27.038.085.085.166.164.324.137-.193.272-.324.331-.482.612-1.59 1.195-3.19 1.284-4.918.015-.307.075-.612.12-.965h-.37c-1.442-.005-2.887.006-4.33-.025a9.366 9.366 0 0 1-1.671-.183c-1.083-.224-1.756-.934-1.908-2.003-.126-.883-.133-1.807.297-2.64.266-.516.752-.828 1.292-.97a7.986 7.986 0 0 1 1.77-.273c1.51-.043 3.023-.025 4.533-.033h.34c.079-1.64-.972-5.697-1.696-6.307-.039.052-.087.099-.114.155-.447.922-.891 1.846-1.337 2.768-.046.096-.085.197-.143.286-.096.146-.07.295.081.33.145.034.317-.022.471-.058.035-.008.043-.105.08-.149.21-.258.431-.247.545.064.16.434.282.883.405 1.329.064.235-.069.376-.289.419-.228.044-.46.084-.689.087-1.113.007-2.228.005-3.341-.01-.126-.002-.295-.07-.357-.164-.048-.073.013-.251.071-.355.864-1.546 1.752-3.077 2.6-4.63.773-1.415 1.319-2.925 1.799-4.459.027-.085.067-.166.102-.25.047.003.087 0 .128-.005zM27.816 57.628c-.26.175-.445.308-.64.428-.642.394-1.295.774-1.933 1.175-.396.249-.741.262-1.185.04-1.294-.644-2.562-1.333-3.716-2.199-1.578-1.184-3.096-2.446-4.383-3.957-1.073-1.26-2.116-2.549-2.925-3.995-.683-1.224-1.263-2.503-1.88-3.763a.972.972 0 0 1 .044-.95c.507-.857 1.028-1.706 1.549-2.553.04-.066.13-.1.195-.149.058.095.135.184.173.288.402 1.057.762 2.13 1.202 3.17.521 1.23 1.222 2.369 1.96 3.482.994 1.497 2.2 2.809 3.5 4.044a20.664 20.664 0 0 0 3.677 2.803 26.01 26.01 0 0 0 1.947 1.024c.668.325 1.352.614 2.03.919.104.05.204.104.385.193zm14.482-.029c.255-.108.486-.193.706-.301 1.075-.525 2.153-1.04 3.214-1.59 1.268-.658 2.392-1.52 3.465-2.46a27.575 27.575 0 0 0 2.896-2.957c1.042-1.231 1.873-2.6 2.63-4.017.735-1.38 1.294-2.828 1.761-4.318.029-.09.114-.164.174-.247.077.066.18.118.23.2.49.8.973 1.604 1.452 2.409.224.376.214.75.044 1.163a25.377 25.377 0 0 1-2.012 3.92 29.574 29.574 0 0 1-1.966 2.76 30.442 30.442 0 0 1-2.286 2.5c-.637.63-1.354 1.18-2.041 1.76-1.316 1.114-2.796 1.965-4.33 2.735-.163.083-.322.19-.495.237-.168.044-.392.09-.523.015-.94-.536-1.864-1.103-2.792-1.663-.034-.021-.058-.067-.127-.146zM12.932 28.32c-.152-.226-.257-.37-.351-.523-.394-.633-.772-1.273-1.177-1.898-.378-.583-.37-1.137-.081-1.773.897-1.972 1.927-3.86 3.23-5.597a27.16 27.16 0 0 1 3.738-4.04 24.191 24.191 0 0 1 4.083-2.95 30.597 30.597 0 0 1 1.985-1.022c.143-.068.384-.074.517.002.932.532 1.848 1.092 2.769 1.645.038.023.061.068.142.159-.33.138-.627.26-.92.387-.656.286-1.345.52-1.958.876-1.216.708-2.464 1.372-3.56 2.27-1.122.92-2.226 1.859-3.146 2.991-.681.84-1.413 1.65-2.01 2.545a21.626 21.626 0 0 0-1.658 2.954c-.538 1.163-.947 2.384-1.416 3.58-.044.107-.098.205-.187.394zm44.149-.01c-1.103-3.727-2.876-7.003-5.477-9.81-2.595-2.8-5.709-4.822-9.284-6.153l-.002-.094c.162-.108.32-.222.489-.322.77-.465 1.545-.92 2.313-1.387.235-.143.455-.122.685.005.906.498 1.832.965 2.716 1.501.735.444 1.468.915 2.124 1.466 1.426 1.202 2.84 2.43 4.007 3.9 1.011 1.273 1.993 2.573 2.761 4.01.542 1.015.994 2.076 1.495 3.113.172.352.112.698-.062 1.003-.495.864-1.022 1.709-1.541 2.56-.03.05-.093.087-.224.208zM9.846 23.145c-.078-.12-.126-.17-.145-.227-.193-.598-.374-1.198-.57-1.794-.123-.378.006-.697.188-1.02 1.069-1.878 2.238-3.69 3.692-5.299 1.104-1.22 2.213-2.433 3.51-3.455a54.057 54.057 0 0 1 1.752-1.341 45.775 45.775 0 0 1 1.912-1.304.596.596 0 0 1 .455-.056c.538.189 1.065.413 1.593.629.085.035.159.092.27.158-.405.255-.76.498-1.136.708a26.497 26.497 0 0 0-3.44 2.317c-.212.168-.426.334-.63.511-1.504 1.303-2.881 2.728-4.058 4.332-.968 1.317-1.858 2.691-2.597 4.153-.27.535-.51 1.083-.796 1.688zM9.87 46.82c2.666 5.948 6.768 10.563 12.666 13.591-.176.118-.288.22-.42.274-.48.205-.964.407-1.458.575a.63.63 0 0 1-.48-.052c-1.45-.93-2.855-1.921-4.152-3.06-1.414-1.242-2.693-2.616-3.88-4.07-1.009-1.239-1.865-2.588-2.654-3.977-.091-.16-.168-.326-.267-.482-.239-.382-.137-.75.002-1.134.16-.446.284-.905.427-1.357.033-.106.085-.204.127-.306.031.002.06 0 .089-.002zm37.66 13.588a26.493 26.493 0 0 0 7.585-5.724c2.153-2.325 3.758-5.009 5.17-7.922.088.247.153.424.213.602.143.43.291.858.422 1.292.114.375.097.733-.125 1.083-.594.93-1.167 1.871-1.756 2.805-.93 1.474-2.135 2.714-3.316 3.984-1.408 1.512-3.014 2.774-4.71 3.934-.366.25-.719.52-1.101.742a.69.69 0 0 1-.507.05c-.494-.165-.977-.372-1.459-.574-.125-.052-.231-.149-.417-.272zm.08-50.999c.088-.048.17-.108.263-.145.512-.208 1.02-.424 1.54-.604a.643.643 0 0 1 .482.045c2.076 1.292 4.015 2.764 5.7 4.541 1.008 1.065 2.017 2.148 2.884 3.324.908 1.233 1.659 2.584 2.446 3.903.104.174.054.477-.004.7-.145.55-.332 1.089-.505 1.631-.031.096-.081.19-.153.357-2.73-5.992-6.828-10.632-12.677-13.644.006-.039.015-.073.023-.108z"/><path d="M35.043.058C15.756.058.119 15.693.119 34.982s15.635 34.921 34.922 34.921S69.963 54.27 69.963 34.982 54.33.058 35.043.058zm0 66.518c-17.45 0-31.596-14.146-31.596-31.596S17.593 3.386 35.043 3.386 66.637 17.53 66.637 34.982c0 17.45-14.146 31.594-31.594 31.594z"/></svg>