<svg xmlns="http://www.w3.org/2000/svg" fill="#FFF" viewBox="2.6 2.2 99.6 100.5"><path d="M52.4 19.3c18 0 32.6 14.6 32.6 32.6S70.4 84.5 52.4 84.5 19.8 69.9 19.8 51.9s14.7-32.6 32.6-32.6m0-4c-20.2 0-36.6 16.4-36.6 36.6 0 20.2 16.4 36.6 36.6 36.6S89 72.1 89 51.9c0-20.2-16.4-36.6-36.6-36.6z"/><path d="M37.6 9c-.7-.5-.8-.6-1.6-.4 0 0-1.8.3-3.1.8-1.2.5-9 3.4-13.9 8.5-5.1 4.9-8.3 12.8-8.8 14-.5 1.3-.6 2.9-.6 2.9 0 1.1-.1 1 .4 1.6.3.5 2 2.2 2.9 3 1 .9 1.3 1.3 1.7.9.1-.2.3-.7.5-1.5.5-1.9 2.4-6.9 6-12.6 0 0 .5-.5-.1-1.1-.5-.5-1.3-1.6-1.4-1.9.4-1 1.4-2 1.4-2l.7-.7.7-.7s1-.9 2.1-1.3c.2-.1 1.7.9 2.2 1.5.3.3.7-.1.7-.1 5.7-3.5 10.9-5.3 12.8-5.7.8-.2 1.3-.3 1.5-.5.4-.1-.4-1-.9-1.6C39.7 11 38 9.3 37.6 9zm29.7 0c.7-.5.9-.6 1.7-.5 0 0 1.8.3 3.1.8 1.2.5 9 3.4 13.9 8.5 5.1 4.9 8.3 12.8 8.8 14 .5 1.3.6 2.9.6 2.9 0 1.1.1 1-.4 1.6-.3.5-2 2.2-2.9 3-1 .9-1.3 1.3-1.7.9-.1-.2-.3-.7-.5-1.5-.5-1.9-2.4-6.9-6-12.6 0 0-.5-.5.1-1.1.5-.5 1.3-1.6 1.4-1.9-.4-1-1.4-2-1.4-2l-.7-.7-.7-.7s-1-.9-2.1-1.3c-.2-.1-1.7.9-2.2 1.5-.3.3-.7-.1-.7-.1-5.7-3.5-10.9-5.3-12.8-5.7-.8-.2-1.3-.3-1.5-.5-.4-.1.4-1 .9-1.6 1-1 2.7-2.7 3.1-3zm0 85.5c.7.5.9.6 1.7.5 0 0 1.8-.3 3.1-.8 1.2-.5 9-3.4 13.9-8.5 5.1-4.9 8.3-12.8 8.8-14 .5-1.3.6-2.9.6-2.9 0-1.1.1-1-.4-1.6-.3-.5-2-2.2-2.9-3-1-.9-1.3-1.3-1.7-.9-.1.2-.3.7-.5 1.5-.5 1.9-2.4 6.9-6 12.6 0 0-.5.5.1 1.1.5.5 1.3 1.6 1.4 1.9-.4 1-1.4 2-1.4 2l-.7.7-.7.7s-1 .9-2.1 1.3c-.2.1-1.7-.9-2.2-1.5-.3-.3-.7.1-.7.1-5.6 3.6-10.8 5.3-12.7 5.8-.8.2-1.3.3-1.5.5-.4.1.4 1 .9 1.6.9.9 2.6 2.6 3 2.9zm-29.7 0c-.7.5-.8.6-1.6.4 0 0-1.8-.3-3.1-.8-1.2-.5-9-3.4-13.9-8.5-5.1-4.9-8.3-12.8-8.8-14-.5-1.3-.6-2.9-.6-2.9 0-1.1-.1-1 .4-1.6.3-.5 2-2.2 2.9-3 1-.9 1.3-1.3 1.7-.9.1.2.3.7.5 1.5.5 1.9 2.4 6.9 6 12.6 0 0 .5.5-.1 1.1-.5.5-1.3 1.6-1.4 1.9.4 1 1.4 2 1.4 2l.7.7.7.7s1 .9 2.1 1.3c.2.1 1.7-.9 2.2-1.5.3-.3.7.1.7.1 5.7 3.5 10.9 5.3 12.8 5.7.8.2 1.3.3 1.5.5.4.1-.4 1-.9 1.6-1.1 1.1-2.8 2.8-3.2 3.1zM65 5.5c-.3-.3-.6-.5-.6-.5-4.2-2.1-8.3-2.8-11.8-2.8-3.6 0-7.6.6-11.8 2.6 0 0-.4.2-.5.6-.1.1-.1.2-.1.3 0 .3.2.8.6 1.2.3.3 1.2 1 2.2 1.8.5.4 1.1.9 1.8 1.4 1 .8 3.3 2.9 5.4 2.6 2.1-.3.8-1.5.8-1.5s-4.3-3.1-5-4.3c-.1-.1-.1-.2-.1-.3.7-.4 4.3-1.2 6.2-1.2h.8c1.9 0 5.9.9 6.6 1.3 0 .1 0 .2-.1.3-.7 1.2-5.2 4.2-5.2 4.2s-1.4 1.3.7 1.6c2.1.3 4.4-1.8 5.4-2.5.7-.5 1.3-1 1.8-1.4 1-.7 1.9-1.4 2.2-1.8.4-.4.7-.9.7-1.2v-.4zM40.2 99.4c.2.3.6.5.6.5 4.2 2 8.3 2.7 11.8 2.7s7.6-.7 11.8-2.7c0 0 .4-.2.5-.6.1-.1.1-.2.1-.3 0-.3-.2-.8-.6-1.1-.3-.3-1.2-1-2.2-1.8-.5-.4-1.1-.9-1.8-1.4-1-.8-3.3-2.8-5.4-2.6-2.1.3-.8 1.5-.8 1.5s4.2 3.1 4.9 4.3c.1.1.1.2.1.3-.7.4-4.3 1.2-6.2 1.2h-.8c-1.9 0-5.9-.9-6.6-1.3 0-.1 0-.2.1-.3.7-1.2 5.1-4.2 5.1-4.2s1.4-1.3-.8-1.5c-2.1-.3-4.4 1.8-5.4 2.6-.7.5-1.3 1-1.8 1.4-1 .8-1.9 1.4-2.2 1.8-.3.4-.7.8-.7 1.1.3.1.3.3.3.4zm6.5-51.1s1.3-1.1 0-1.8-2.4-1-2.4 0c.1 1 1.4 2 2.4 1.8zm-5-1.7s.2 1.7 1.5 1.8c0 0 .3.7-.9.8s-1.8-.6-1.6-1.7c.2-1.3.9-1.4 1-.9zm1.5 13.2s-.6 2.8 0 4.1 2.6 3.3 2.6 3.3.5-5.2 0-5.9c-.5-.7-2.6-1.5-2.6-1.5z"/><path d="M76.6 60.1c-.1-1.2.8-4.4 1.3-5.7.5-1.2 3.8-3.3 3.8-3.3s-1.6-.3-3.6-1.3-3-3.2-4.1-5c-2.3-3.7.8-8.1.8-8.1s2.4-4.3 1.3-4.8c-1.1-.5-1.1-.5-8 1.2-3.7.9-6.1-.1-6.1-.1-4-2.1-6.1-1.4-8.2-.1-.4.2-.8.4-1.2.5-.4-.1-.8-.2-1.2-.5-2-1.3-4.2-2-8.2.1 0 0-2.5.9-6.1 0-6.9-1.8-6.9-1.8-8-1.2-1.1.5 1.3 4.8 1.3 4.8s3 4.4.8 8.1c-1.1 1.8-2.1 4-4.1 5-2 1-3.6 1.3-3.6 1.3s3.2 2.1 3.8 3.3c.5 1.2 1.4 4.5 1.3 5.7-.1 1.2-.4 2.8-3 4.5 0 0 3.3 3.6 8.2 3.8 7.3.2 6.8 5.4 4.2 6.7 0 0 4.8.7 5.7-2 1.4-4.5-2-7.3-6.1-8.5-2.8-.8-6.2-7.7-6.2-10s.4-7.7 6.1-13.2c0 0-2.5-1.9-4.4-4.8-1.8-2.9 1-1.6 3.2-1 3.1.8 7.5 0 9.1-1.2 1.4-.9 3-.7 4.5-.1 1 .6 1.5 1.4 2.8 1.4 1.6 0 1.9-.9 2.8-1.4 1.5-.6 3.1-.8 4.5.1 1.7 1.2 6.1 1.9 9.1 1.2 2.2-.5 5-1.8 3.2 1-1.8 2.9-4.4 4.8-4.4 4.8 5.7 5.5 6.1 10.8 6.1 13.2s-3.4 9.2-6.2 10c-4.1 1.2-7.6 4-6.1 8.5.9 2.7 5.7 2 5.7 2-2.7-1.3-3.2-6.5 4.2-6.7 4.9-.1 8.2-3.8 8.2-3.8-2.7-1.6-3.1-3.3-3.2-4.4z"/><path d="M58.5 48.3s-1.3-1.1 0-1.8 2.4-1 2.4 0c-.1 1-1.4 2-2.4 1.8zm5-1.7s-.2 1.7-1.5 1.8c0 0-.3.7.9.8s1.8-.6 1.6-1.7-.9-1.4-1-.9zM62 59.8s.6 2.8 0 4.1-2.6 3.3-2.6 3.3-.5-5.2 0-5.9c.5-.7 2.6-1.5 2.6-1.5zm-5.3 2.7c-.9-.5-4.1-.5-4.1-.5h-.2s-3 .1-3.9.5c-.9.5.8 4.1.8 4.1s.4-2.3 2.8-2.5h.8c2.5.1 3 2.5 3 2.5s1.7-3.7.8-4.1zm-1 7.1c0-.5-.1-.9-.3-1.1-.2-.2-.6-.3-1-.4-.5-.2-.9-.3-1.3-.3h-1c-.4 0-.8.1-1.3.3-.4.1-.8.2-1 .4-.2.2-.3.6-.3 1.1-.1.4 0 .9.2 1.4.6 1.9 1.8 2.8 2.9 2.8 1.2.1 2.3-.8 2.9-2.8.2-.5.3-1 .2-1.4z"/><path d="M59.1 77.1c-.3-.3-.7-.8-.7-.8s-.6-2.7.7-5c0 0-1.9-.7-3.3 2.6-.5 1.1-.8 1.9-.9 2.1h-4.8c-.1-.2-.4-1-.9-2.1-1.4-3.2-3.3-2.6-3.3-2.6 1.3 2.3.7 5 .7 5s-.5.4-.7.8c-.7.9 1.2 1.2 4.1 4 .8.7 1.7.8 2.4.6.7.1 1.6.1 2.4-.6 3.2-2.8 5-3.1 4.3-4zm11.5-28c-.6-1.4-5.3-7.9-8-10.5-2.7-2.5-7.4-2.1-7.4-2.1-1.2 0-2 0-2.6.1-.6-.1-1.4-.1-2.6-.1 0 0-4.7-.4-7.4 2.1s-6.8 8.8-7.4 10.2c-.6 1.4-1.7 6.7.6 5.6 2.2-1.1 2.7-.2 2.7.9s-.1 3.4 1.9 4.5c0 0-.3-7.5 1.8-7.6 2.2 0 3.5 2.6 4 3.7 0 0-1 .5-3.1-1.2 0 0-.5.2-.1 1.3s-.6.6 4.2 3.9c0 0 .8.7 3.1.8.8.1 1.6.1 2.4.1.8 0 1.6 0 2.4-.1 2.3-.1 3.1-.8 3.1-.8 4.8-3.3 3.7-2.7 4.2-3.8.4-1.1-.1-1.3-.1-1.3-2.1 1.7-3.1 1.2-3.1 1.2.5-1.1 1.8-3.7 4-3.7s1.8 7.6 1.8 7.6c2-1.1 1.9-3.4 1.9-4.5s.5-2 2.7-.9c2.1 1 1.6-4 1-5.4zM46.5 38.8c.9-.3 4.8-.4 6.1-.5 1.3 0 5.2.2 6.1.5 1 .3-.5 1-2.2 1s-1.5 0-2.5.9c-.4.4-.9.7-1.4.8-.5-.2-1-.5-1.4-.8-1-1-.8-.9-2.5-.9s-3.3-.6-2.2-1zm17.8 11.8c-1.2-1-2.1-.8-3.7-.6-1.6.2-2.5 2.6-3.7 4.2-1 1.4-2.8 3.2-4.4 3.7-1.5-.5-3.3-2.3-4.4-3.7-1.2-1.6-2.1-4-3.7-4.2-1.6-.2-2.5-.4-3.7.6-1.2 1-2.7.5-2.3-2 .4-2.4 1.9-5 3.2-5.3 1.4-.3.4 1.1 1.4 1.3 1 .2 2.8-.5 3.9.5.1.1.2.2.4.3.4.3.9.6 1.3.8 1.5.5 1.8-1.1 1.6-1.9-.3-1.7-1.7-1.6-.7-2.2.4 0 .8.1 1.1.6.9 1.3 1.2 1.5.5 3.5-.7 1.9-1.1 1.6-1.8 2.3-.6.6-1.2 2.6 1.2 4.9.1.1.2.2.4.3.5.6 1.1.9 1.7.9.6 0 1.2-.3 1.7-.9.1-.1.2-.2.4-.3 2.4-2.3 1.8-4.3 1.2-4.9-.6-.6-1.1-.4-1.8-2.3s-.4-2.2.5-3.5c.3-.4.7-.6 1.1-.6.9.6-.4.5-.7 2.2-.2.8.1 2.5 1.6 1.9.4-.2.9-.5 1.3-.8.1-.1.3-.2.4-.3 1.1-1 2.9-.3 3.9-.5s0-1.6 1.3-1.3c1.2.3 2.8 2.8 3.2 5.3.3 2.4-1.1 3-2.4 2zm-58.5-12c-.3.2-.5.6-.5.6-2 4.6-2.7 8.9-2.7 12.7 0 3.8.7 8.2 2.7 12.7 0 0 .2.4.6.6.1.1.2.1.3.1.3 0 .8-.3 1.1-.6.3-.3 1-1.3 1.8-2.3.4-.5.9-1.2 1.4-1.9.8-1.1 2.8-3.6 2.6-5.9-.3-2.3-1.5-.8-1.5-.8s-3.1 4.6-4.3 5.3c-.1.1-.2.1-.3.1-.4-.7-1.2-4.7-1.2-6.7v-.8c0-2 .9-6.4 1.3-7.1.1 0 .2 0 .3.1 1.2.8 4.2 5.5 4.2 5.5s1.3 1.5 1.5-.8c.3-2.3-1.8-4.7-2.6-5.9-.5-.8-1-1.4-1.4-1.9-.8-1.1-1.4-2-1.8-2.3-.4-.4-.8-.7-1.1-.7-.1-.1-.3-.1-.4 0zM99 65.2c.3-.2.5-.6.5-.6 2-4.6 2.7-8.9 2.7-12.7 0-3.8-.7-8.2-2.7-12.7 0 0-.2-.4-.6-.6-.1-.1-.2-.1-.3-.1-.3 0-.8.3-1.1.6-.3.3-1 1.3-1.8 2.3-.4.5-.9 1.2-1.4 1.9-.8 1.1-2.8 3.6-2.6 5.9.3 2.3 1.5.8 1.5.8s3.1-4.6 4.3-5.3c.1-.1.2-.1.3-.1.4.7 1.2 4.7 1.2 6.7v.8c0 2-.9 6.4-1.3 7.1-.1 0-.2 0-.3-.1-1.2-.8-4.2-5.5-4.2-5.5s-1.3-1.5-1.5.8c-.3 2.3 1.8 4.7 2.6 5.9.5.8 1 1.4 1.4 1.9.8 1.1 1.4 2 1.8 2.3.4.4.8.7 1.1.7.1.1.3.1.4 0z"/></svg>