<svg xmlns="http://www.w3.org/2000/svg" fill="#FFF" viewBox="34.7 19.4 669.8 977.5"><path d="M229.8 438.4c-7.7-.2-13.8-3.3-17.4-9.4-7-12-8.7-25-4-38.4 1.1-3.2 3.3-4.9 7-5.4 9.5-1.3 19.7-13 19.2-22.6-.4-7-2.3-14-3.4-21-.3-1.8-.7-3.8-.1-5.3 5.5-14.7 10.9-29.4 22.7-40.6.8-.8 1.7-1.6 3.1-2.9 1.3 2.4 2.6 4.4 3.6 6.6 7.6 16.2 20.6 26.2 36.8 32.7 8 3.2 17.5 1.4 22.7-5.4 14-18.2 23.4-38.4 24.3-61.7.8-18.1-9.2-31.4-21.7-43.2-.8-.8-1.8-1.5-3.3-2.8 3.1-2.7 6-5.3 9-7.7 4.5-3.7 9.4-6.9 13.6-11 5.3-5.3 8.6-11.7 8.6-19.6-.1-18 .7-36-.3-54-.5-8.7-2.8-18.2-7.1-25.7-5.3-9.3-5.9-18.3-3.9-27.8 4-19.2 13.4-36.2 26.4-51.2 3-3.5 5.8-3.3 8.6.2 15.4 18.8 27.1 39.2 27.4 64.4 0 2.8-.7 6-2.2 8.4-7.1 12.1-10.4 25-10.1 39.1.3 15 .4 30 0 45-.3 9.9 3.7 17.4 10.9 23.6 5.5 4.8 11.4 9.2 17.1 13.7.9.7 1.9 1.4 3.3 2.4-3.5 3.4-6.6 6.2-9.4 9.1-16.2 16.9-19.5 36.6-12.3 58.3 4.3 13 9.6 25.5 17.7 36.8 7.2 10.1 16.8 13.3 28.2 8.3 14.9-6.6 27.1-16.2 34.2-31.4 1-2.1 2.3-4.1 3.4-6.1.1-.1.3-.2.9-.5 6.1 5.7 11.7 11.9 15.4 19.6 3.1 6.4 5.6 13.2 8.9 19.5 3.6 6.9-.7 12.9-1.7 19.3-2.7 16.6.7 22.8 12.6 31.3 1.3 1 2.9 1.6 4.5 2.1 6.7 1.9 10.5 5.2 10.4 12.3-.2 8.9-1 18-3.2 26.5-2.4 9.2-11.9 15-19.9 14.2.6-2.7 1.1-5.4 1.8-8.1 4.7-15.9-12.4-26.6-24.6-25.8-14 .9-25.8 6.6-34.6 17.6-12.3 15.5-21.9 32.6-28.5 51.3-4.7 13.3-1.7 25.2 8.3 30.4 6.1 3.2 13.5 4.1 20.4 5.7 2 .5 4.2.1 7.3.1-3.1 12-5.4 23.4-8.9 34.4-7.8 24-17.5 47.6-24.3 71.9-9.9 35.1-18.1 70.7-17.5 107.6.4 29.1 6.7 56.8 20 82.8 1.6 3.1 3.3 6.3 5.6 8.8 3.7 4.2 3.7 8.5 2.1 13.4-7.9 23.5-14.9 47.3-23.6 70.5-10.3 27.8-21.9 55.1-33.2 82.5-1.8 4.3-4.2 8.3-6.8 12.2-2.7 4.1-5.1 4.1-7.7.1-3.2-5.1-6.3-10.3-8.5-15.8-17.7-45.2-37.9-89.6-51.4-136.4-1.3-4.5-2.3-9-3.8-13.4-1.7-4.8-.9-8.6 2-12.9 13-19.3 19.6-41 23.3-63.7 6.4-40.3-1.3-79.3-10.4-118.2-6.4-27.5-16.3-53.8-25.8-80.3-5-13.9-8.3-28.3-12.1-41.8 8.7-1.9 16.6-3.1 24.1-5.5 9.4-3 14.8-11.5 13.8-21.3-.6-5.7-1.4-11.8-4-16.8-7.1-13.9-14.5-27.7-22.8-40.9-8.1-12.9-20.3-20.4-35.8-22-19.5-2.1-31.7 13.1-25.4 31.6 0 .5.2 1.1.5 2.3zM361.7 565h-.4c0 9.3-.8 18.8.2 28 1.2 10.2 4.1 20.1 6.3 30.1.2.8 1.2 1.7 1.9 1.9.5.1 1.8-.9 1.9-1.6 2.4-10 6.5-20 6.6-30 .6-57.6 0-115.2 5.4-172.7 1.8-19.4 3.5-39.1 12-56.8 4-8.3 3.5-13.7-1.2-21-9.7-15-16.8-31.4-22-48.5-.4-1.2-1.7-2.1-2.6-3.1-.9 1.1-1.7 2.2-2.5 3.3-.2.3-.3.6-.4.9-6 20.1-15.5 38.5-26.8 56.1-.7 1.1-.1 3.3.5 4.7 2.8 7.3 6.8 14.2 8.5 21.7 6.5 27.4 9.1 55.5 10 83.6 1.2 34.5 1.8 69 2.6 103.4z"/><path d="M467 632.2c4.2-9.2 8.3-17.9 12.1-26.7 7.9-18.1 11.2-37.6 15.1-56.7 1.4-6.8.2-14.1.2-21.7 1 .3 2.8.6 4.2 1.5 13.7 9.8 27.3 19.9 35.9 34.8 5.3 9.1 8 19 8.8 29.8 1 13.4 9.4 26 25.3 25.4.7 0 1.3-.1 2 0 20 2.4 30.9-10 39.6-25.2 2.7-4.7 3.9-10.4 1.3-16.1-2.6-5.7-4.8-11.5-7.4-17.2-2.1-4.5 1.7-5.3 4.1-6.1 4.2-1.4 8.7-1.9 13.1-2.8 7.8-1.7 13.4-6.4 17.3-13.2 5.6-9.7 5.6-19.9.9-29.6-9.6-19.7-14.4-40.1-11.7-61.9 2.1-17.3 7.7-33.1 21.9-44.5 2.4-1.9 5-3.6 8.3-6-2.3 7.9-4.3 14.6-6.2 21.3-4.5 16.5-2.7 32.2 5.2 47.4 7.4 14.4 14.7 28.8 20.8 43.7 4.8 11.6 8 23.9 11.3 36.1 2.4 8.9-2.1 16.7-6.2 24-5.2 9.3-13.1 17.4-16.6 27.1-3.7 10.3-5 22-4.9 33.1.1 9.4 8.2 15.5 16.1 19.6 8.6 4.4 17.9 7.6 27.3 11.5-2 1.7-4.5 4.1-7.3 5.9-18.5 11.6-39.4 17.4-59.9 24.1-24.3 7.9-49.2 10.2-74.5 8-5.1-.4-10.1-2.5-15.2-2.6-18.9-.1-36.9 3.4-53.1 14.3-15.8 10.6-24.2 24.5-23.7 43.8.4 13.6-.2 27.3 3.1 40.7 2.1 8.4 6.1 15.4 12.1 21.4 1.4 1.4 2.6 2.9 3.8 4.4-.2.5-.5.9-.7 1.4-2.1-.8-4.6-1.2-6.2-2.6-17.5-15.9-33.2-33.5-37.9-57.3-4.6-23.3-2.9-46.5 10.1-67.5 1.3-2.1 3.8-3.7 6-5 10.7-6.6 20.7-13.9 27.4-24.9 3.8-6.3 1.9-18.4-3.1-23.8-5-5.2-11.3-8-18.7-7.9zM249.6 820.5c.6-.9 1.1-2.1 1.9-2.7 13.1-10.8 15.6-26.1 16.8-41.4.9-11.2.2-22.6-.7-33.9-1.2-13.8-9.9-23.1-20.5-31-16.1-12-34.6-16-54.1-15.8-9.1.1-18.1 2.3-27.2 3-20 1.5-39.6-1.1-58.7-7-13.8-4.3-27.8-8.3-41.2-13.8-10-4.1-19.2-10.2-28.7-15.6-1.1-.6-1.8-1.8-2.5-2.6 7-2.5 14.1-4.5 20.7-7.5 10-4.5 19.2-10.1 22.8-21.6.2-.8.6-1.6.6-2.4-.5-14.1-1-28-9.5-40.5-6.4-9.4-11.4-19.8-17.1-29.7-3.1-5.4-2.1-11-.9-16.5 3.9-18.9 11.6-36.4 20.3-53.5 5.4-10.7 10.1-21.7 15.2-32.6 5-10.7 4.4-21.8 2.3-32.8-1.7-8.4-4.3-16.6-6.7-25.7 2.3 1.5 4.6 2.7 6.7 4.3 14.1 11.1 20.4 26.3 22.8 43.5 3.2 22.7-2 43.8-11.7 64.4-7.9 16.9-.8 38.3 19.3 42.6 3.1.7 6.3.9 9.2 1.9 2.9.9 5.7 2.6 7.4 3.4-3.4 8.7-7 15.9-8.9 23.6-.9 3.8.6 8.6 2.1 12.5 4.2 11 13.8 17.2 22.5 24.1.3.2.6.3.9.4 9.9 1.8 19.8 3 29.4-1.1 9.9-4.2 14-13.2 14.6-22.8 1.1-19.7 9.3-35.4 23.8-48.2 5.6-5 11.3-9.8 17.2-14.4 2.4-1.9 5.4-3 7.7-4.3-.4 37.9 10.5 72.1 26.9 104.2-4.9 2.2-10.3 4-15 6.9-9.4 5.9-12.7 23-1.5 33.2 7.6 6.9 16.1 12.7 24.2 19 1.4 1.1 3.2 2.1 4 3.5 5.8 10.4 10.9 21 11.4 33.2.6 13.8 2.9 27.9-2.6 41-4.2 10-9.7 19.7-15.9 28.6-5.3 7.7-12.3 14.4-18.9 21.2-1.9 2-4.8 2.9-7.3 4.3-.4-.5-.8-.9-1.1-1.4zM180 379.8c-3.3-6.8-5.6-13.9-9.7-19.7-7-9.8-17.5-14.3-29.3-14.9-13-.6-26-.2-39-.3-3.2 0-6.5-.3-9.9-1.6 1.3-.5 2.6-1.1 3.9-1.6 9.7-3.7 18.9-8.4 26-16.2 5.8-6.5 9.6-13.9 9.3-23-.2-6.7-.5-13.4.1-20 .5-5.2 2.5-10.3 3.8-15.5.6 0 1.2.1 1.7.1 1.6 2 3.2 4.1 4.9 6 10 10.9 22.5 16.3 36.8 12.1 12.5-3.6 17.9-11.2 17.4-24.4-.5-13.3-8-22-18.7-28.2-3.3-1.9-8.6-2.6-12.3-1.5-18.9 5.9-37.4 3.9-55.3-3-15.8-6-31.2-13.3-46.7-20.1-1.6-.7-3.1-1.7-4.5-3.6 2 0 4-.3 5.9.1 31.7 6.5 61.9.2 90.3-13.3 20.3-9.6 31.6-27.9 38.5-48.9 5.8-17.4 2.1-32.6-10.6-45.4-6.6-6.7-14.2-12.5-21.3-18.6-1.1-.9-2.1-1.8-4-3.4 8-1.4 14.8-.7 21.4 1.5 17 5.5 34 11 48.3 22.2 7 5.5 13.6 11.9 19.1 18.9 9.5 11.9 12.5 25.5 7.7 40.4-6.7 20.8-13.1 41.7-15.3 63.4-.8 8.2 1.1 16.8 2.7 25 1.9 9.4 4.6 18.7 7.3 28 1.2 4-1.2 5.1-3.8 6.3-14.4 7.1-25.2 17.8-32.6 31.9-4.5 8.7-7.1 18.2-6.7 27.9.5 13.4-6.7 22.6-15.2 31.2-3 3.3-7.2 5.8-10.2 8.2zM581.4 75.5c-4.8 3.7-10 7-14.5 11.1-11.8 10.8-23.1 22.1-23.3 39.6-.2 12.3 4.5 23.4 10.3 34 9.9 18 24.4 30.4 44.1 36.8 23.7 7.6 47.6 12.8 72.6 8.3 2.9-.5 5.9-.9 8.9-1.3.4-.1.9.3 1.7.7-.5.6-.8 1.3-1.2 1.5-21.2 8.7-42.1 18.4-63.7 25.7-12.3 4.1-26 4.7-38.8-.2-7.8-3-14.1-.8-20.3 4.1-11.5 9.1-16.4 22.9-12.3 35.4 3.2 9.8 16.6 17.8 30.4 14.8 11.7-2.5 20.6-8.8 27.4-19.3 3.9 4.9 5.8 9.9 5.9 15.7.1 6 .3 12 0 18-.6 13.2 5.1 23.3 15.5 30.6 7.1 5 15.2 8.7 23.6 13.4-3.4.2-6.4.6-9.5.7-12.5.1-25-.2-37.5.2-20.2.6-36.8 13.4-39.4 35.2-6.9-4.1-13-8.9-17.8-15-5.4-6.9-9.5-14.1-9.3-23.5.3-10.9-2.2-21.6-7.7-31.2-7.4-12.8-17.5-23-30.9-29.6-4.2-2-5.2-3.9-3.9-8.8 3.9-14.8 8.4-29.7 9.6-44.8.9-10.9-2.6-22.4-5.2-33.4-2.9-12.5-6.8-24.7-10.5-36.9-4.9-15.9.2-34.2 12.8-44.8.8-.6 1.6-1.3 2.2-2 17.6-21.4 42.6-28.6 67.7-35.6 4-1.1 8.5-.2 12.8-.2 0 .1.1.4.3.8z"/></svg>