<svg xmlns="http://www.w3.org/2000/svg" fill="#FFF" viewBox="151.7 322.6 1518.9 1910.1"><path d="M557.8 2078.4c-8.8-2.2-18-3.3-26.2-6.8-44.1-18.6-65.4-68.2-43.6-109.3 10.5-19.8 28.1-37.1 45.5-51.9 29.9-25.5 65.7-40.7 104.4-48.3 22.5-4.4 45-8.4 71.5-13.3-24.1-12.7-46-23.9-67.6-35.7-13.3-7.2-27.1-9.4-42.3-9.7-45.6-.7-81.9 19.4-112.1 50.7-33.9 35.1-53 78.6-65 125.7-9.2 36.3-.5 68.5 17.5 99.9 21.7 38 52.7 64 95.4 73.9 15 3.5 31.2 4 46.5 2.7 27.4-2.4 43-28 36.9-57.4-5-24.2-10.6-29.6-34.6-33.5.8-16.1 6.5-22.2 21.2-22.7 34.9-1.1 61.1 26.4 64.6 63.4 5.5 58.3-39.1 101-79 117.5-22.9 9.5-49.6 10.7-75 4.7-20.4-4.8-40.8-9.2-60.9-14.9-30.3-8.6-55.1-27.2-78.4-47.3-19.2-16.5-38.1-33.8-54.9-52.7-10.7-12-18.9-27-25.3-41.9-8.6-20.2-22.6-36.6-34.4-54.5-16.2-24.4-25.1-50.9-22.7-80.8 1-12.4-.8-25-.2-37.4 1.6-33.8 21.2-57.7 44.6-79.3 4.5-4.2 9.2-8.3 16.2-14.5-6.5-.6-10.1-1.1-13.7-1.2-37.6-.1-75.1 0-112.7 0-17.3 0-21.7-4.4-21.7-22.2V794c0-20.8 7.1-27.8 28-27.8h339.8c-9.7-7.2-16.2-13.8-24.2-17.6-27.8-13.6-42.8-39.4-57.3-63.8-11.2-18.8-5.6-41.8.8-62.5 2.7-8.9 7.3-17.3 11.6-25.5 22.8-44 73.2-67.7 122-57 42.5 9.3 59.2 45.4 55.7 83.6-1.9 20.9-11.1 36.7-32.2 42.9-5.2 1.5-11.5 1.7-16.7.4-20.8-5.3-22.3-8.9-13.9-28.6 10-23.3-1.9-43.6-27.2-46.3-4.9-.5-9.8-.8-14.7-.9-19-.5-32.1 10.9-34.2 29.8-.7 6.2-.5 12.6-1.8 18.7-4.8 23.4 7.4 37.1 26.2 47.1 21.7 11.6 44 19.1 69.7 18 33.9-1.5 68-1.4 100.6-11.8 29-9.3 50.9-28.4 66.1-54.7 10.8-18.7 15.2-39.4 20.8-60.2 9.8-36 26.5-69.6 62.8-87.3 7.7-3.8 16.9-5.4 25.6-6.1 35.6-2.9 66.9 9.3 94 31.3 22.1 18 43 37.6 63.4 57.5 10.2 9.9 16 22.6 9.6 39.6-6.3-3.2-12.9-6.3-19.2-9.9-18.1-10.3-37-14.3-57.7-10-49 10.2-79.3 42.2-99.7 85.3-8.6 18.1-15.3 37-22.2 55.8-5.8 15.7 8 32.9 24.5 30.5 3.5-.5 6.5-5.3 9.6-8.2 19.6-18.7 38.2-38.7 59.1-55.8 30.6-25.1 68.3-31.2 106.4-34.6 39.9-3.6 79.1-.8 117.4 12.8 9.4 3.3 20.4 3.2 30.6 2.8 9.5-.3 17.8-4.8 17.9-16 .2-15.9 1.5-32.3-1.3-47.8-6.9-37.9-43.6-52.4-75.5-44.1-13.3 3.5-26.6 7.2-40 10.3-3.4.8-7.3-.3-11-.6.7-3.8.5-8 2.1-11.4 19.1-38.1 45.7-69.8 80.8-94.5 31.7-22.3 63.6-44.4 93.8-68.7 41.3-33.3 89-50.1 140-59.5 51.3-9.5 102.5-19.7 154.2-25.5 26.6-3 54.1 3 81.2 4.9l.6 5.7c-6.8 2.2-13.5 4.7-20.5 6.6-12 3.1-24.3 5.3-36.2 8.7-58.4 16.9-96.4 56.6-122.7 109.5-17.7 35.5-27.2 74-26.3 112.7 1 44.5 22.9 90.3 74.7 105.7 51.5 15.3 101.5 35.7 152.3 53.8 10.7 3.8 21.6 6.9 32.1 12.9-9.3 0-18.5-.2-27.8 0-53 1.4-105.1 8.1-153 32.6-32.8 16.8-62.8 37.6-77.9 73.8-7.8 18.7-3 37 .8 55.2 7.3 34.7 18.6 67.9 41.6 95.9 9.3 11.3 19.1 22.3 27.3 31.9-30.2-8.5-64.1-17.3-97.5-27.6-33.8-10.4-62.2-2.3-86.6 22.3-15.5 15.7-13.5 35.2-9.3 54.2 4.3 19.5 12.6 37.2 23.9 54.5 17.3 26.5 27.6 56.8 31.5 88.8 3.9 31.4 8.1 62.7 12.1 94 .5 3.9.1 7.9.1 13.3-2-1.6-3.7-2.3-4.2-3.5-17.5-43.6-51.7-70.2-92.4-90-21-10.2-42.7-17.6-66.8-15.7-19.7 1.5-38.2 26.8-31.8 45.6 9.8 29.1 13.3 58.6 6.6 89-20.2-21.2-39.5-43.4-61-63-9.3-8.5-22.9-13.4-35.5-16.7-11.9-3.1-28.4 16.9-31.3 34.9-1.1 6.9 2.3 18.5-8.5 17.6-5.7-.5-12.1-10.2-15.4-17.1-8-16.5-6.1-33.2.3-50.5 19.7-52.7 55.6-93.9 96.6-129.8 56.9-49.9 90.8-111.4 100.4-185.2 5.8-45-1.5-89.7-32.6-125.9-23.2-27.1-53.7-41.8-88.7-50.3-27.9-6.8-53.8-2.8-80.2 3.4-30.4 7.1-55.3 25.3-73.6 48.6-36.4 46.5-47.8 100.2-31 157.9 6.3 21.5 24.6 34 42.1 45.2 30.2 19.3 64.4 22 99.1 17 6.3-.9 13.1-3.9 18.2-7.9 42.5-33 64.8-75.5 58.3-130.3-2.9-24.5-16.8-36.9-41.6-39-20.4-1.8-38.7 10.9-45.2 32.2-2.1 7.1-2 14.9-3.1 24.1 6.6-.9 9.5-1.4 12.5-1.7 16.6-1.6 29.2 7.9 30.6 24.6 1.3 16.4-.5 32.1-16.8 41.8-17.5 10.5-36.6 14.1-52.5.4-41.9-36-54.5-61.6-38.8-113.1 8.9-29.3 59.3-66.9 89.6-70.6 44.6-5.4 80.8 9.3 99.2 49.2 19.3 42 25 87.4 1.2 131.6-12.7 23.5-22.2 49.2-37.8 70.5-19.9 27.2-45.1 50.4-66.9 76.3-20.3 24-44.4 43.6-67.6 64.3-37.1 33.1-40.1 76.8-32 121 3.8 20.6 20 36 39.5 48 24.9 15.4 51.2 17.2 79 19.5 60.6 5 99.2 43.9 99.8 110.3.3 33-9.6 63.8-21.8 94.4-20.5 51.3-38.4 103.5-74.6 147-33.6 40.4-71.4 76-112.9 108-55.2 42.6-116.1 74.5-180.7 99.9-20.6 8.1-41.6 8.6-64.2 4.9-60.3-10.1-118.1-4-169.7 33.5-13.6 9.9-26.6 18-28.3 37.5-2.3 26.3 11.5 40.6 32.5 51.1.8.4 1.8.4 2.5.9.7.4 1.2 1.2 1.7 1.8-.5 1.3-.7 2.5-.9 3.6zm-52.8-1023c-3.9 5.2-6.1 7.9-8 10.8-42.8 68.6-85.4 137.3-128.3 205.8-4.4 7-4.5 12.3-.1 19.4 36.4 57.8 72.3 115.8 108.4 173.8 8.6 13.8 17.3 27.6 26.6 42.5 3.1-3.5 5.1-5.2 6.5-7.4 43.3-69.8 86.5-139.6 130-209.2 4.5-7.1 4.5-12 .1-19.1-33.7-53.7-66.9-107.7-100.4-161.6-11-17.8-22.3-35.3-34.8-55zm259.4 748.4c-.5 1.4-1 2.9-1.5 4.3 15.1 8 29.7 17.3 45.4 23.9 42.2 17.6 84.3 13.1 121.6-11.2 42.8-28 79.5-63.4 103.8-109.8 7-13.4 15.1-26.3 22.3-39.6 31.2-56.8 50-116.2 40.5-182.1-3.7-26.1-21-43.3-42.9-38.4-27.8 6.3-53.5 2.9-79.3-8.9-45.4-20.8-81.5-50.3-100.3-98.3-6.5-16.7-15.4-32.5-24.7-51.8 0 25.1 2.5 47.2-.6 68.6-5 35.5 11.3 59.7 35.9 81.1 3 2.6 5.9 5.5 9 8 24.2 19.4 46.4 41.9 79.9 45.6 42.6 4.6 78.2 59.2 68.8 95.3-6.2 23.8-19 45.8-29.3 69.6-6.6-14-10.7-25.8-17.5-35.8-5.8-8.5-10.7-16.2-8.6-26.8 5.1-26.8-24.3-56.6-53.3-51.9-19.2 3.1-35.7-5.2-51.2-15.6-10.5-7-21.1-14-32.1-21.3v218.1c25.6 5.5 42.8-7 58.9-22.9 31.5-31.2 22.9-74.3-18.2-90.7-2.4-1-5-3.6-5.9-6-3.5-9.5 2.4-15.9 15.4-18 21.1-3.5 35.1 7.7 49.4 21.1 28.2 26.6 32 80.1 11.4 108.5-22.2 30.7-51.6 53.1-83.2 72.4-16 9.8-34.2 14.2-53.8 12.9-19.7-1.3-39.8-.3-59.9-.3zm-540.8-304.4c3.7-4.7 4.9-6 5.8-7.5 41.7-67.1 83.5-134.1 124.6-201.5 2.7-4.4 2.4-13.3-.4-17.8-31.2-51.6-63.1-102.7-94.9-153.9-10.8-17.4-21.9-34.7-32.8-52.1-.8.3-1.5.6-2.3.9v431.9zm281 15.1c-46.7 75-91.4 146.7-137.4 220.7h274.1c-44.8-74.4-90.5-145.6-136.7-220.7zm279.3-13.2V1062c-45.2 72.4-88.8 142-131.8 211.9-2.3 3.8-1.9 11.4.4 15.4 9.9 17.4 21 34.2 31.6 51.2 32.7 52.6 65.3 105.3 99.8 160.8zM640.4 830.2H368.8c45.5 73 89.9 144.2 135.8 217.9 46-73.9 90.5-145.2 135.8-217.9zm-284.9 905.1c-44.3-71.3-87.1-140.3-129.9-209.2-2.7 5.3-3.1 10.1-3.1 14.9v143.3c0 30 21.7 52.2 51.7 52.5 22.8.3 45.5.1 68.3 0 3.4-.1 6.8-.8 13-1.5zm429.8-210.7c-2.2 1.1-3.2 1.2-3.6 1.8-40.7 65.1-81.4 130.1-121.8 195.3-2.5 4-2.9 9.3-4.6 15.1 27.7 0 53.2.8 78.6-.2 34.5-1.4 51.1-20 51.2-55.2.1-29 .1-58.1.2-87.1v-69.7zm-560.6-486.3c43.6-70.3 86-138.6 129-207.9-36.5 0-70.7-1-104.9.4-17.5.7-25.1 10.7-25.3 28.3-.6 55.4-.7 110.7-.9 166.1 0 3.7 1.1 7.4 2.1 13.1zm557.7-.5c.9-.2 1.8-.3 2.7-.5 0-59.8.2-119.7-.2-179.5-.1-13.3-11.4-26.3-25.7-26.8-34.6-1.3-69.3-.4-105.9-.4 43.4 69.6 86.3 138.4 129.1 207.2zm67.5 199.7c10.7-38.1 28.3-72.8 49.4-106 14.4-22.7 11.5-41.1-8.2-59.3-14.2-13.1-27-27.6-41.2-42.2v207.5zm-528.8 754.1c19.1-60.3 44.4-117 84.4-167.6-42.5-8.6-62.4 22.3-82.4 48.1-22.2 28.9-30.1 88.5-2 119.5zm1106.8-500.3c2.1 70.2-17.1 133.7-34.7 193.6-33.6 1.6-64.8 3.8-96.1 4.5-35.2.8-70.4.2-107.4.2 3.8-12 7.7-24 11.3-36.2 4.7-15.8 8.5-31.9 14.2-47.2 2.7-7.2 7.6-15.9 14-19.1 65.5-32.3 131.4-63.5 198.7-95.8zm-67.5 261.7c-26.3 67-75.5 113.1-130.2 155.4-46.8-22.8-94.6-46-144.5-70.3 24.6-26.7 47.4-51.7 70.5-76.5 2.1-2.2 5.7-4.2 8.7-4.3 61.5-1.6 123-2.9 184.6-4.3 3.5-.1 7.1 0 10.9 0zm-197.9 197.7c-38.6 29-71.8 62.3-116.8 79.2-18.7 7-36 17.4-54.2 25.6-23.6 10.6-28.2 9.4-45.2-9-19.6-21.3-39.4-42.5-59.9-64.7 45.2-18.2 81.9-47.4 119.4-75.2 8.2-6.1 16.8-11.6 25.9-16.1 3-1.5 8.5 0 12 1.8 38.9 18.9 77.6 38.1 118.8 58.4z"/></svg>