<svg xmlns="http://www.w3.org/2000/svg" viewBox="0 0 100 100"><path fill="#fff" d="M87.532 40.625c-3.558 4.427-7.724 13.885-9.374 16.667-1.65 2.78-3.042 5.468-3.124 8.333S79.2 76.042 79.2 76.042s-7.209-5.209-9.374-4.167-6.95 7.635-11.457 13.542C53.852 91.323 50.036 100 50.036 100s-3.815-8.677-8.332-14.583c-4.517-5.907-9.292-12.5-11.457-13.542-2.176-1.042-9.375 4.167-9.375 4.167s4.26-7.552 4.167-10.417-1.475-5.552-3.125-8.333c-1.65-2.782-5.816-12.24-9.374-16.667C8.982 36.198 0 31.25 0 31.25s6.074.344 9.374 1.042c3.3.698 8.333 3.125 8.333 3.125s1.65-2.084 4.166-4.167c2.516-2.083 5.208-4.167 5.208-4.167L20.84 5.208s4.167 5.47 6.25 8.334 6.775 8.51 8.332 8.333c1.568-.177 5.559-5.906 7.291-8.333C44.447 11.115 50.005 0 50.005 0s5.559 11.115 7.291 13.542c1.733 2.427 5.734 8.156 7.291 8.333 1.568.177 6.25-5.469 8.333-8.333 2.083-2.865 6.249-8.334 6.249-8.334l-6.25 21.875s2.692 2.084 5.208 4.167c2.517 2.083 4.167 4.167 4.167 4.167s5.032-2.427 8.332-3.125c3.3-.698 9.374-1.042 9.374-1.042s-8.91 4.948-12.468 9.375zM39.6 66.667c3.042 0 8.332-4.167 8.332-4.167s-1.474 2.344-3.124 5.208-2.166 7.813-1.042 10.417c1.124 2.604 6.25 6.25 6.25 6.25s5.125-3.646 6.249-6.25c1.124-2.604.608-7.552-1.042-10.417S52.1 62.5 52.1 62.5s5.3 4.167 8.332 4.167c3.042 0 5.208-1.907 5.208-5.209s-2.692-6.25-5.208-6.25-4.166 2.084-4.166 2.084 2.083-4.167 2.083-6.25c0-2.084-8.332-12.5-8.332-12.5s-8.333 10.416-8.333 12.5c0 2.083 2.083 6.25 2.083 6.25s-1.65-2.084-4.166-2.084c-2.516 0-5.208 2.948-5.208 6.25s2.166 5.209 5.208 5.209zm32.299-33.334c-3.218-1.823-5.91-1.562-7.291-1.041-1.393.52-3.125 1.041-3.125 1.041S60.957 29.51 58.358 25c-2.609-4.51-8.332-11.458-8.332-11.458S44.292 20.49 41.693 25c-2.609 4.51-3.124 8.333-3.124 8.333s-1.733-.52-3.125-1.041c-1.392-.521-4.084-.782-7.291 1.041-3.217 1.823-7.29 5.386-7.29 7.292 0 1.906 3.217 4.948 5.207 7.292 1.99 2.343 5.208 9.375 5.208 9.375s3.124-5.813 3.124-9.375-4.166-9.375-4.166-9.375 6.518 4.166 8.333 4.166 4.95-5.646 6.249-9.375c1.3-3.729 5.208-14.583 5.208-14.583s3.908 10.854 5.208 14.583c1.299 3.73 4.424 9.375 6.249 9.375s8.332-4.166 8.332-4.166-4.166 5.812-4.166 9.375 3.125 9.375 3.125 9.375 3.217-7.032 5.208-9.375c1.99-2.344 5.207-5.386 5.207-7.292 0-1.906-4.083-5.469-7.29-7.292z"/></svg>